<svg xmlns="http://www.w3.org/2000/svg" xmlns:xlink="http://www.w3.org/1999/xlink" width="341" height="327" viewBox="0 0 341 327">
    <defs>
        <path id="a" d="M0 326h340.383V.636H0z"/>
    </defs>
    <g fill="none" fill-rule="evenodd">
        <path fill="#D6E0F5" d="M2.42 233.15h335.543V15.121H2.42z"/>
        <path fill="#36C" d="M2.42 159.131h335.543V89.142H2.42z"/>
        <path fill="#1A3366" d="M148.938 33.215h49.791v-5.971h-49.791z"/>
        <path fill="#8398B2" d="M148.937 48.333h110.009v-5.969H148.937zM148.937 63.043h110.009v-5.969H148.937zM148.937 77.754h110.009v-5.971H148.937zM89.397 32.833c-.634 0-1.229.247-1.677.695a2.36 2.36 0 0 0-.697 1.678V69.79a2.376 2.376 0 0 0 2.374 2.374h34.584a2.378 2.378 0 0 0 2.376-2.374V35.205a2.376 2.376 0 0 0-2.373-2.373H89.397zm0 44.92a7.908 7.908 0 0 1-5.628-2.335 7.897 7.897 0 0 1-2.332-5.628l-.001-34.584c0-4.39 3.57-7.962 7.96-7.962h34.588c4.39 0 7.959 3.573 7.96 7.962l.002 34.584a7.905 7.905 0 0 1-2.335 5.627 7.906 7.906 0 0 1-5.627 2.337l-34.587-.002z"/>
        <mask id="b" fill="#fff">
            <use xlink:href="#a"/>
        </mask>
        <path fill="#FFF" d="M148.938 104.853h49.791v-5.971h-49.791z" mask="url(#b)"/>
        <path fill="#FC0" d="M148.937 119.97h110.009V114H148.937zM148.937 134.68h110.009v-5.969H148.937zM148.937 149.391h110.009v-5.971H148.937z" mask="url(#b)"/>
        <path fill="#FFF" d="M89.397 104.47c-.634 0-1.229.247-1.677.695a2.36 2.36 0 0 0-.697 1.679v34.584a2.377 2.377 0 0 0 2.374 2.374h34.584a2.378 2.378 0 0 0 2.376-2.374v-34.585a2.376 2.376 0 0 0-2.373-2.374H89.397zm0 44.919a7.91 7.91 0 0 1-5.628-2.334 7.898 7.898 0 0 1-2.332-5.627l-.001-34.584c0-4.391 3.57-7.962 7.96-7.962h34.588c4.39 0 7.959 3.57 7.96 7.962l.002 34.583a7.905 7.905 0 0 1-2.335 5.628 7.906 7.906 0 0 1-5.627 2.336l-34.587-.002z" mask="url(#b)"/>
        <path fill="#FC0" d="M90.69 123.626l4.49-4.695 8.642 8.272 14.175-14.784 4.695 4.496-18.668 19.477z" mask="url(#b)"/>
        <path fill="#1A3366" d="M148.938 176.489h49.791v-5.971h-49.791z" mask="url(#b)"/>
        <path fill="#8398B2" d="M148.937 191.606h110.009v-5.97H148.937zM148.937 206.317h110.009v-5.97H148.937zM148.937 221.028h110.009v-5.972H148.937zM89.397 176.106c-.634 0-1.229.247-1.677.695a2.361 2.361 0 0 0-.697 1.68v34.583a2.376 2.376 0 0 0 2.374 2.374h34.584a2.378 2.378 0 0 0 2.376-2.374v-34.586a2.374 2.374 0 0 0-2.373-2.372H89.397zm0 44.92a7.903 7.903 0 0 1-5.628-2.335 7.896 7.896 0 0 1-2.332-5.626l-.001-34.585c0-4.39 3.57-7.962 7.96-7.962h34.588c4.39 0 7.959 3.571 7.96 7.962l.002 34.584c0 2.122-.828 4.12-2.335 5.627a7.91 7.91 0 0 1-5.627 2.337l-34.587-.003z" mask="url(#b)"/>
        <path fill="#FFF" d="M340.383 254.955V231.23H0v23.726c0 10.422 8.442 18.884 18.895 18.884h302.589c10.42 0 18.899-8.462 18.899-18.884" mask="url(#b)"/>
        <path fill="#FFF" d="M243.472 319.839c-2.538-.966-5.323-1.114-7.951-1.728-3.936-.946-7.775-2.29-10.714-5.178-2.828-2.785-4.71-6.488-5.451-10.38-1.055-5.562-1.22-11.441-1.708-17.085-.262-2.93-.55-7.768-.823-11.63h-93.271c-.282 3.862-.57 8.7-.837 11.63-.501 5.644-.65 11.523-1.715 17.085-.75 3.892-2.607 7.595-5.445 10.38-2.961 2.888-6.766 4.232-10.725 5.178-2.623.614-5.392.762-7.937 1.728-2.38.904-3.875 2.826-1.235 4.553 2.573 1.65 6.054 1.608 8.989 1.608H235.694c2.949 0 6.442.042 9.005-1.608 2.652-1.727 1.155-3.65-1.227-4.553" mask="url(#b)"/>
        <path fill="#D0DAEA" d="M122.717 285.468c-.501 5.645-.65 11.523-1.715 17.085-.748 3.893-2.607 7.595-5.445 10.379-.106.103-.221.19-.328.29h109.905c-.107-.1-.222-.187-.327-.29-2.828-2.784-4.71-6.486-5.451-10.38-1.055-5.561-1.22-11.44-1.708-17.084-.262-2.93-.55-7.768-.824-11.628h-93.27c-.283 3.86-.57 8.698-.837 11.628" mask="url(#b)"/>
        <path fill="#AABCD6" d="M217.505 283.722c-.22-2.891-.457-6.715-.681-9.883h-93.277c-.227 3.168-.467 6.992-.688 9.883h94.646z" mask="url(#b)"/>
        <path fill="#264D99" d="M321.483.636H18.894C8.441.636 0 9.11 0 19.544V231.23h15.921V15.783h308.53V231.23h15.931V19.544c0-10.434-8.478-18.908-18.899-18.908" mask="url(#b)"/>
    </g>
</svg>
