<svg
  xmlns="http://www.w3.org/2000/svg"
  xmlns:xlink="http://www.w3.org/1999/xlink"
  width="346"
  height="436"
  viewBox="0 0 346 436"
>
  <defs>
    <path
      id="a"
      d="M170 433c93.888 0 170-76.112 170-170V0H0v263c0 93.888 76.112 170 170 170z"
    ></path>
    <path
      id="c"
      d="M97.476 10.513H.998V3.197a10.93 10.93 0 0 0 5.646 1.55h81.954c3.726 0 7.001-1.83 8.878-4.594v10.36z"
    ></path>
    <linearGradient id="f" x1="50%" x2="50%" y1="55.18%" y2="26.425%">
      <stop offset="0%" stop-color="#C78D6A"></stop>
      <stop offset="100%" stop-color="#C78D6A" stop-opacity="0"></stop>
    </linearGradient>
    <path
      id="e"
      d="M91.427 132.802l-52.844.872c-12.923.213-24.76-9.244-26.29-21.655L4.767 51.054c-2.133-17.264 9.72-32.094 26.33-31.82l67.558 1.114c15.82.262 26.929 14.942 24.941 31.57l-7.051 59.04c-1.444 12.082-12.678 21.64-25.119 21.844"
    ></path>
    <linearGradient
      id="g"
      x1="22.433%"
      x2="76.842%"
      y1="18.041%"
      y2="85.573%"
    >
      <stop offset="0%" stop-color="#EF9F8A" stop-opacity="0"></stop>
      <stop offset="100%" stop-color="#EF9F8A" stop-opacity=".5"></stop>
    </linearGradient>
    <linearGradient
      id="h"
      x1="68.648%"
      x2="16.071%"
      y1="22.366%"
      y2="78.811%"
    >
      <stop offset="0%" stop-color="#EF9F8A" stop-opacity="0"></stop>
      <stop offset="100%" stop-color="#EF9F8A" stop-opacity=".5"></stop>
    </linearGradient>
    <linearGradient
      id="j"
      x1="35.557%"
      x2="39.826%"
      y1="55.095%"
      y2="106.382%"
    >
      <stop offset="0%" stop-color="#C78D6A"></stop>
      <stop offset="100%" stop-color="#C78D6A" stop-opacity="0"></stop>
    </linearGradient>
    <path
      id="i"
      d="M116.377 38.46c17.324-6.032 26.363-10.18 27.117-12.442l-4.52 12.443c12.052-4.525 19.208-12.066 21.468-22.624 2.26 6.033 2.26 11.689 0 16.968C172.494 23 178.519 12.82 178.519 2.262c0 0 5.65 23.756-11.298 36.199-16.948 12.443-38.416 6.787-50.844 0z"
    ></path>
  </defs>
  <g fill="none" fill-rule="evenodd" transform="translate(3)">
    <circle
      cx="170"
      cy="263"
      r="171.5"
      fill="#FC0"
      stroke="#E9F1FE"
      stroke-width="3"
    ></circle>
    <mask id="b" fill="#fff">
      <use xlink:href="#a"></use>
    </mask>
    <g mask="url(#b)">
      <path
        fill="#1A3366"
        d="M116.571 217.719c-13.332 1.275-26.39 35.76-28.924 44.945l-2.72 9.862-6.24 49.145c-1.263 8.696 4.553 17.136 13.245 18.356 8.33 1.17 16.02-4.401 17.597-12.57 0 0 16.92-93.249 16.951-93.404.96-4.982-2.27-16.115-8.876-16.366a7.876 7.876 0 0 0-1.033.032"
      ></path>
      <path
        fill="#2A3F4C"
        d="M84.07 413.681a3.237 3.237 0 0 1-.795-.098l.047.665 4.896-.622-4.149.055"
      ></path>
      <path
        fill="#1A3366"
        d="M105.385 402.412c.2-.003.394.02.583.05l.606-70.446c.009-3.787-1.44-7.25-3.81-9.867a14.546 14.546 0 0 0-9.48-4.653c-8.978-.763-16.465 6.742-15.707 15.724l4.951 69.827a3.22 3.22 0 0 1 1.394-.349l21.463-.286"
      ></path>
      <path
        fill="#D4F0FE"
        d="M108.749 410.086l-.06-4.454a3.272 3.272 0 0 0-2.72-3.17 3.203 3.203 0 0 0-.584-.05l-21.463.286a3.22 3.22 0 0 0-1.394.349 3.27 3.27 0 0 0-1.824 2.96l.06 4.452c.02 1.522 1.094 2.784 2.51 3.124.257.06.52.101.795.098l4.15-.055 17.312-.231c.118-.002.228-.026.342-.04 1.63-.197 2.899-1.591 2.876-3.269"
      ></path>
      <path
        fill="#FBBA9F"
        d="M88.218 413.626l-4.896.622.579 8.116a10.96 10.96 0 0 0 9.979 10.004c.548.047 1.097.064 1.652.022a10.98 10.98 0 0 0 10.266-10.938l.075-8.097c-.114.014-.224.038-.342.04l-17.313.23"
      ></path>
      <path
        fill="#1A3366"
        d="M223.908 218.896c13.002-3.216 36.727 24.998 42.155 32.824l5.828 8.406 22.14 44.305c4.066 7.787 1.37 17.678-6.43 21.71-7.473 3.865-16.572 1.157-20.76-6.028l-46.881-82.52c-2.555-4.38-3.188-15.957 2.963-18.383.321-.126.649-.23.985-.314"
      ></path>
      <path
        fill="#40537B"
        d="M199.954 442.952h-55.65c-10.86 0-19.663-8.813-19.663-19.686V380.55h94.976v42.716c0 10.873-8.803 19.686-19.663 19.686"
      ></path>
      <path
        fill="#67423A"
        d="M49.976 703.155c.063-5.92 2.745-12.914 13.88-15.87 21.014-5.578 34.04-12.252 34.04-12.252l10.826-.264a3.642 3.642 0 0 1 3.718 3.915l-1.026 13.68-40.116 13.792-21.322-3"
      ></path>
      <path
        fill="#40537B"
        d="M121.445 569.468c-7.443-1.121-12.652-7.96-11.764-15.442l15.593-127.36c1.047-8.8 9.918-14.408 18.304-11.567l15.275 5.176c6.954 2.356 10.89 9.71 8.996 16.812L136.981 559.27c-1.83 6.863-8.52 11.254-15.536 10.197"
      ></path>
      <path
        fill="#40537B"
        d="M136.271 562.651c1.278-7.472-3.54-14.628-10.938-16.244-8.432-1.843-16.535 4.23-17.147 12.848l-3.057 28.29-.401.32-11.665 87.944a2.642 2.642 0 0 0 2.053 2.93l18.793 4.106a2.639 2.639 0 0 0 3.168-2.156l19.194-118.038"
      ></path>
      <path
        fill="#67423A"
        d="M235.775 703.322c.762-5.872-.921-13.17-11.538-17.65-20.032-8.452-32.004-16.878-32.004-16.878l-10.682-1.772a3.64 3.64 0 0 0-4.227 3.36l-.887 13.689 37.807 19.251h21.53"
      ></path>
      <path
        fill="#40537B"
        d="M193.961 560.279c7.518.408 14-5.233 14.641-12.743l10.454-127.885c.754-8.83-6.802-16.117-15.589-15.033l-16.005 1.976c-7.286.9-12.626 7.305-12.206 14.643l5.552 125.91c.405 7.091 6.07 12.746 13.153 13.132"
      ></path>
      <path
        fill="#40537B"
        d="M180.819 550.601c.257-7.576 6.423-13.609 13.994-13.695 8.63-.097 15.34 7.49 14.196 16.055l-2.718 28.325.327.394-6.34 88.49a2.64 2.64 0 0 1-2.603 2.453l-19.233.217a2.641 2.641 0 0 1-2.667-2.754L180.82 550.6"
      ></path>
      <path
        fill="#1A3366"
        d="M236.781 230.679c-1.342-15.48-23.626-25.97-35.108-31.47-2.941-1.408-26.267-8.948-29.544-7.748-3.277-1.2-26.603 6.34-29.544 7.748-11.482 5.5-33.766 15.99-35.108 31.47-.737 8.494-1.218 19.301-.8 23.245l14.84 156.896c.158 1.56 2.703 2.967 5.758 3.125l33.153 1.977c3.733.217 7.472.321 11.213.346v.016c.163 0 .325-.007.488-.008.163.001.325.008.488.008v-.016c3.74-.025 7.48-.129 11.212-.346l33.154-1.977c3.055-.158 5.6-1.565 5.759-3.125l14.84-156.896c.417-3.944-.064-14.751-.8-23.245"
      ></path>
      <path
        fill="#E8F3F7"
        d="M208.993 202.728l-37.995 102.393-35.733-101.444 1.72-1.1c21.926-14.122 49.368-14.227 71.385-.257l.623.408"
      ></path>
      <path
        fill="#607189"
        d="M136.47 203.671l-9.737 27.65 18.062 9.007-11.888 23.193 39.297 41.595-35.734-101.445"
      ></path>
      <path
        fill="#607189"
        d="M207.788 203.673l9.737 27.647-18.062 9.008 11.888 23.193-39.297 41.595 35.734-101.443"
      ></path>
      <path
        fill="#36C"
        d="M184.555 279.318l-13.95 26.221-10.667-26.396.003-.026 1.212-31.836 6.154-13.996-7.604-11.822 13.987-17.79 10.865 16.385-9.657 13.216 5.154 10.031 4.503 36.013"
      ></path>
      <path
        fill="#D4F0FE"
        d="M155.938 225.097l17.296-12.905 16.64 11.82c6.37-4.783 10.457-11.919 10.457-19.423 0-13.224-12.627-25.38-28.202-25.38-15.575 0-28.202 12.156-28.202 25.38 0 8.1 4.757 15.766 12.011 20.508"
      ></path>
      <path
        fill="#2A3F4C"
        d="M237.476 383.326c.211.176.442.31.68.421l-.454.49-3.424-3.558 3.198 2.647"
      ></path>
      <path
        fill="#1A3366"
        d="M227.92 361.17a3.244 3.244 0 0 0-.486-.327l43.63-55.272c2.365-2.957 5.662-4.745 9.146-5.298 3.481-.52 7.161.207 10.301 2.323 7.472 5.038 8.608 15.586 2.394 22.108l-47.572 51.302a3.228 3.228 0 0 0-.867-1.146l-16.545-13.69"
      ></path>
      <path
        fill="#D4F0FE"
        d="M220.495 365.038l2.834-3.432a3.266 3.266 0 0 1 4.105-.763c.168.095.333.199.487.327l16.545 13.69c.386.32.67.718.867 1.146.51 1.107.391 2.455-.431 3.452l-2.834 3.432c-.968 1.173-2.595 1.482-3.912.857a3.142 3.142 0 0 1-.68-.42l-16.545-13.692-.241-.245c-1.147-1.176-1.262-3.058-.195-4.352"
      ></path>
      <path
        fill="#FBBA9F"
        d="M234.278 380.68l3.424 3.557-5.53 5.961a10.947 10.947 0 0 1-14.04 1.533c-.456-.306-.894-.639-1.3-1.02a10.995 10.995 0 0 1-1.152-14.965l5.01-6.356.241.245 13.347 11.044"
      ></path>
      <path
        fill="#FBBA9F"
        d="M229.67 396.066c-2.546 2.12-9.083 9.329-14.859 11.976-3.028 1.388-5.847 1.523-7.772-.984-.94-1.222-1.273-2.776-1.018-4.227-2.17 1.385-5.05 1.024-6.706-1.028-1.83-2.144-1.435-5.43.762-7.21l.548-.443-.076-.106-4.547 3.68a6.074 6.074 0 0 0-1.338-.737c-.212-.08-.359-.133-.46-.167a11.077 11.077 0 0 1-1.155-.781l-.156-.156a18.956 18.956 0 0 1-.755-.893c.508.65-.685-1.382-.59-1.122.103.28-.271-2.097-.256-1.273a7.525 7.525 0 0 0-.127-1.231l10.063-8.142a3.927 3.927 0 0 1 1.454-.736l1.877-1.562-7.529-.352a5.317 5.317 0 0 1-5.066-5.569 5.32 5.32 0 0 1 5.562-5.071l21.922 1.026c.75.035 1.446.238 2.079.547 9.473 1.827 17.7 16.495 8.143 24.56"
      ></path>
      <path
        fill="#EF9F8A"
        d="M103.332 456.638l5.862-2.054c5.485-1.922 8.727-7.584 7.613-13.294l-.837-4.29-19.033-1.885 6.395 21.523"
      ></path>
      <path
        fill="#714247"
        d="M102.645 435.115H82.94c-8.88 0-16.102 7.233-16.102 16.122v10.477c0 .44.357.797.796.797h5.982c.44 0 .796-.357.796-.797v-10.477c0-4.708 3.826-8.538 8.528-8.538h19.705c4.703 0 8.528 3.83 8.528 8.538v10.477c0 .44.358.797.796.797h5.983a.798.798 0 0 0 .796-.797v-10.477c0-8.89-7.223-16.122-16.103-16.122"
      ></path>
      <path
        fill="#67423A"
        d="M138.896 551.035H49.67c-4.908 0-8.922-4.02-8.922-8.933v-70.314c0-4.912 4.014-8.933 8.922-8.933h89.227c4.907 0 8.923 4.02 8.923 8.933v70.314c0 4.914-4.016 8.933-8.923 8.933"
      ></path>
      <g transform="translate(40.52 510.171)">
        <mask id="d" fill="#fff">
          <use xlink:href="#c"></use>
        </mask>
        <path
          fill="#4D2D27"
          d="M.998 10.513h96.478V.153H.998z"
          mask="url(#d)"
        ></path>
      </g>
      <path
        fill="#67423A"
        d="M148.369 464.584c0-2.758-2.36-4.994-5.273-4.994h-95.12c-6.275 0-11.361 4.816-11.361 10.757v34.581c0 5.517 4.723 9.99 10.548 9.99h81.954c5.826 0 10.549-4.473 10.549-9.99v-28.817c0-5.557-3.5-10.212 1.935-11.527h6.768"
      ></path>
      <path
        fill="#BDADAA"
        d="M143.483 550.459c-.392 0-.774-.042-1.142-.121 3.21-1.355 5.478-4.544 5.478-8.236v-25.73l1.151-4.557v33.15c0 3.022-2.469 5.494-5.487 5.494"
      ></path>
      <path
        fill="#2A3447"
        d="M147.819 516.371v-44.583c0-2.947-1.447-5.574-3.663-7.204h3.894c.581.87.92 1.916.92 3.036v44.195l-1.151 4.556"
      ></path>
      <path
        fill="#4D2D27"
        d="M142.341 550.338c-2.474-.53-4.345-2.743-4.345-5.373v-24.28h8.158V509.39h-7.596a9.527 9.527 0 0 0 1.108-4.462v-28.817c0-5.557-3.5-10.212 1.935-11.527h2.555c2.216 1.63 3.663 4.257 3.663 7.204v70.314c0 3.692-2.268 6.88-5.478 8.236"
      ></path>
      <path
        fill="#391F1A"
        d="M146.154 520.685h-8.158v-10.361c.204-.301.392-.613.562-.934h7.596v11.295"
      ></path>
      <path
        fill="#4D2D27"
        d="M137.996 510.324V467.62c0-3.021 2.47-5.494 5.487-5.494 1.9 0 3.581.98 4.567 2.458h-6.449c-5.436 1.315-1.935 5.97-1.935 11.527v28.817a9.527 9.527 0 0 1-1.67 5.396"
      ></path>
      <path
        fill="#714247"
        d="M93.795 527.982H76.476a3.154 3.154 0 0 1-3.142-3.146v-7.54a3.153 3.153 0 0 1 3.142-3.146h17.32a3.153 3.153 0 0 1 3.141 3.145v7.541a3.154 3.154 0 0 1-3.142 3.146"
      ></path>
      <path
        fill="#EAD25E"
        d="M93.483 525.1H76.788a3.466 3.466 0 0 1-3.454-3.458v-9.798a3.467 3.467 0 0 1 3.454-3.458h16.695c1.9 0 3.454 1.557 3.454 3.458v9.798a3.466 3.466 0 0 1-3.454 3.458"
      ></path>
      <path
        fill="#FBBA9F"
        d="M114.501 428.716c-.754-4.248-5.175-7.14-9.875-6.46l-.776.114a9.27 9.27 0 0 0-2.227.616c-2.71-1.511-6.002-2.193-9.393-1.702l-7.063 1.022c-7.5 1.086-12.608 7.462-11.406 14.241l2.106 11.88c1.203 6.778 8.259 11.392 15.76 10.306l7.063-1.022c.26-.038.508-.096.762-.146a26.666 26.666 0 0 1-.359-.927h4.24V439.24c1.467-1.237 3.432-1.998 5.599-1.998h3.161a19.488 19.488 0 0 1 3.877-.241l-1.469-8.285"
      ></path>
      <g>
        <path
          fill="#F6B297"
          d="M193.188 143.53v52.268c0 9.932-8.027 17.968-17.947 17.968h-7.178c-9.92 0-17.946-8.036-17.946-17.968V143.53c0-9.93 8.026-17.967 17.946-17.967h7.178c9.92 0 17.947 8.036 17.947 17.967"
        ></path>
        <path
          fill="#EF9F8A"
          d="M193.188 153.71v37.494l-43.071-10.747V153.71c0-9.931 8.026-17.967 17.946-17.967h7.178c9.92 0 17.947 8.036 17.947 17.967"
        ></path>
        <g transform="translate(107.182)">
          <use fill="#A56052" xlink:href="#e"></use>
          <use fill="url(#f)" xlink:href="#e"></use>
        </g>
        <path
          fill="#F6B297"
          d="M218.982 55.788v70.676c0 1.093-.087 3.257-.302 5.852-.519 6.671-1.685 16.325-3.457 18.512l-26.697 28.78a17.31 17.31 0 0 1-13.521 6.49h-4.86c-5.185 0-10.109-2.3-13.392-6.284l-27.584-28.941c-2.138-2.596-3.455-15.483-3.823-21.813a51.569 51.569 0 0 1-.086-2.733V56.198c0-7.105 4.406-13.48 11.08-16.03l27.951-10.724a17.475 17.475 0 0 1 4.428-1.071c2.42-.25 4.903 0 7.257.798l31.169 10.314c7.085 2.346 11.837 8.903 11.837 16.303"
        ></path>
        <path
          fill="#A56052"
          d="M217.785 8.751c-.202-2.823-.534-5.709-.919-8.615l-75.645 6.556a34.222 34.222 0 0 0-10.142 3.12c-5.007 2.444-7.698 8.12-6.766 13.675 5.24 2.847 11.35 2.371 17.21 2.674l.213.014c-.442-.025 5.139 6.52 5.717 6.984 25.025 20.12 73.216 15.918 70.332-24.408"
        ></path>
        <path
          fill="#F6B297"
          d="M126.611 124.024h-6.135c-7.342 0-13.294-6.97-13.294-15.567v-4.79c0-7.274 5.037-13.171 11.249-13.171h8.18v33.528M217.91 124.024h6.134c7.342 0 13.294-6.97 13.294-15.567v-4.79c0-7.274-5.037-13.171-11.249-13.171h-8.18v33.528"
        ></path>
        <path
          fill="#67413A"
          d="M193.253 98.314c2.332 0 4.188.74 5.606 1.896v-3.413c0-2.843-2.324-5.17-5.163-5.17-2.84 0-5.164 2.327-5.164 5.17v2.823c1.276-.796 2.825-1.306 4.721-1.306M150.074 98.314c-2.332 0-4.188.74-5.606 1.896v-3.413c0-2.843 2.324-5.17 5.163-5.17 2.84 0 5.162 2.327 5.162 5.17v2.823c-1.274-.796-2.824-1.306-4.72-1.306"
        ></path>
        <path
          fill="#FFF"
          d="M158.971 142.531c-.713 0-1.175 1.07-.827 1.936 2.389 5.95 7.383 10.045 13.158 10.045 5.776 0 10.77-4.095 13.158-10.045.348-.866-.114-1.936-.827-1.936h-24.662"
        ></path>
      </g>
      <g>
        <path
          fill="#67413A"
          d="M151.833 101.789c-3.057 0-5.558-2.505-5.558-5.562v-4.969c0-3.06 2.501-5.565 5.558-5.565s5.555 2.505 5.555 5.565v4.97c0 3.056-2.498 5.56-5.555 5.56"
        ></path>
        <path
          fill="#B0593C"
          d="M138.904 79.79l-1.628-6.658c8.366-2.052 16.895-1.34 24.664 2.058l-2.734 6.286c-6.386-2.794-13.407-3.379-20.302-1.686"
        ></path>
        <path
          fill="#67413A"
          d="M191.542 101.789c3.057 0 5.555-2.505 5.555-5.562v-4.969c0-3.06-2.498-5.565-5.555-5.565-3.057 0-5.558 2.505-5.558 5.565v4.97c0 3.056 2.501 5.56 5.558 5.56"
        ></path>
        <path
          fill="#B0593C"
          d="M204.936 79.79l1.628-6.658c-8.36-2.052-16.889-1.34-24.664 2.058l2.74 6.286c6.386-2.794 13.401-3.379 20.296-1.686"
        ></path>
        <path
          fill="url(#g)"
          d="M23.727 48.974c0 6.561-5.31 11.877-11.863 11.877C5.31 60.851 0 55.535 0 48.974c0-6.562 5.31-11.878 11.864-11.878 6.553 0 11.863 5.316 11.863 11.878"
          transform="translate(133.169 71.985)"
        ></path>
        <path
          fill="url(#h)"
          d="M81.633 48.974c0 6.561-5.31 11.877-11.863 11.877-6.554 0-11.864-5.316-11.864-11.877 0-6.562 5.31-11.878 11.864-11.878 6.553 0 11.863 5.316 11.863 11.878"
          transform="translate(133.169 71.985)"
        ></path>
      </g>
      <g transform="translate(36)">
        <use fill="#A56052" xlink:href="#i"></use>
        <use fill="url(#j)" xlink:href="#i"></use>
      </g>
    </g>
  </g>
</svg>