<?xml version="1.0" encoding="UTF-8"?>
<svg viewBox="0 0 198 33" version="1.1" xmlns="http://www.w3.org/2000/svg" xmlns:xlink="http://www.w3.org/1999/xlink">
    <!-- Generator: Sketch 51.3 (57544) - http://www.bohemiancoding.com/sketch -->
    <title>Group</title>
    <desc>Created with Sketch.</desc>
    <defs></defs>
    <g id="Page-1" stroke="none" stroke-width="1" fill="none" fill-rule="evenodd">
        <g id="Group" fill-rule="nonzero">
            <path d="M128.443907,31.5308949 L128.443907,31.2486601 L123.61687,18.5766601 L123.978983,18.5766601 C126.352078,18.5766601 127.478597,17.410445 127.478597,14.9966846 L127.478597,4.37633252 C127.478597,1.96305623 126.352562,0.795872861 123.978983,0.795872861 L109.41509,0.795872861 L109.41509,31.5308949 L116.254562,31.5308949 L116.254562,6.58918826 L120.599428,6.58918826 L120.599428,14.3934866 L117.018968,14.3934866 L117.018968,19.8643863 L121.283472,31.5308949 L128.443907,31.5308949 Z M139.639863,21.1109633 L136.260792,21.1109633 L137.950812,10.6518191 L139.639863,21.1109633 Z M148.167902,31.5308949 L148.167902,31.4500489 L141.691511,0.795872861 L134.209144,0.795872861 L127.732753,31.4500489 L127.732753,31.5308949 L134.571257,31.5308949 L135.294513,26.9444597 L140.605174,26.9444597 L141.329399,31.5308949 L148.167902,31.5308949 Z M166.838479,25.4558289 C166.837995,29.5596088 164.626592,31.5308949 160.522812,31.5304108 L148.252621,31.5304108 L148.252621,0.795388753 L160.522812,0.795388753 C164.627076,0.795388753 166.838479,2.84752078 166.838479,6.95130073 L166.838479,25.4558289 Z M159.958826,24.0882249 L159.958826,8.23854279 C159.958826,6.99099756 159.275751,6.58918826 158.069355,6.58918826 L155.092577,6.58918826 L155.092577,25.7375795 L158.06887,25.7375795 C159.275267,25.7375795 159.958826,25.334802 159.958826,24.0882249 Z M169.550934,31.5308949 L169.551418,0.795872861 L176.389922,0.795872861 L176.389922,31.5308949 L169.550934,31.5308949 Z M190.76356,25.7375795 L185.896826,25.7375795 L185.896826,6.58918826 L190.76356,6.58918826 L190.76356,25.7375795 Z M197.642729,27.9499511 L197.642729,4.37633252 C197.642729,1.96305623 196.51621,0.795872861 194.143115,0.795872861 L182.517756,0.795872861 C180.143692,0.795872861 179.057355,1.96305623 179.057355,4.37633252 L179.057355,27.9499511 C179.057355,30.3632274 180.143692,31.5304108 182.517271,31.5304108 L194.143115,31.5304108 C196.51621,31.5308949 197.642729,30.3641956 197.642729,27.9499511 Z" id="Shape" fill="#307D84"></path>
            <path d="M16.0927042,25.4122592 C8.86110513,25.4122592 3.63129095,20.8364743 1.40100733,16.1454719 C3.63080685,11.5295061 8.86110513,6.95130073 16.0927042,6.95130073 C23.2855746,6.95130073 28.5531491,11.5295061 30.7853692,16.1454719 C28.5531491,20.8364743 23.2860587,25.4122592 16.0927042,25.4122592 Z M16.0927042,0.181056235 C7.28678729,0.181056235 0.286591687,7.37634719 0.286591687,16.145956 C0.286591687,24.9910856 7.28678729,32.1834719 16.0927042,32.1834719 C24.938802,32.1834719 31.8610562,24.9920538 31.8610562,16.145956 C31.8610562,7.37634719 24.9392861,0.181540342 16.0927042,0.181056235 Z M16.0927042,7.68520782 C20.7846748,7.68569193 24.5544205,11.4902934 24.5544205,16.1454719 C24.5544205,20.8747188 20.7846748,24.642044 16.0927042,24.642044 C11.4012176,24.642044 7.59371149,20.8747188 7.59371149,16.1454719 C7.59371149,11.4902934 11.4017017,7.68520782 16.0927042,7.68520782 Z M56.2450709,12.3815355 L56.1923032,12.3820196 C55.3088068,8.76379951 52.9391002,0.717447433 47.1254523,0.717447433 C40.9700244,0.717447433 39.7539462,8.50673839 39.7539462,17.9294083 C39.7539462,26.5925134 41.1985232,31.6465966 46.6689389,31.6465966 C52.3310611,31.6465966 55.4680782,24.5031051 56.2654034,19.4877506 L56.3205917,19.4872665 L56.3205917,31.1150465 C55.3325281,30.3549976 54.6489682,30.0127335 53.8506748,30.0127335 C51.2674768,30.0127335 50.1651638,31.9888606 46.0613839,31.9888606 C40.2104597,31.9888606 33.7510122,25.5294132 33.7510122,17.5881125 C33.7510122,6.45557457 42.0340929,0.375667482 46.8596773,0.375667482 C50.013154,0.375667482 51.9887971,2.12329584 53.7746699,2.12329584 C54.5342347,2.12329584 55.332044,1.79071394 56.2436186,1.14491443 L56.2450709,12.3815355 Z M68.2102738,15.277467 L68.2102738,31.171687 L71.5912812,31.171687 C75.7715501,31.171687 77.8987188,30.1269829 77.8987188,22.9074866 C77.8987188,15.6502298 74.6314768,15.277467 71.743291,15.277467 L68.2102738,15.277467 Z M72.4283032,14.9119658 C75.4670465,14.9119658 76.9503521,13.6745868 76.9503521,7.74668949 C76.9503521,2.16154034 74.8977359,1.19526161 69.6161222,1.19526161 L68.2107579,1.19526161 L68.2107579,14.9119658 L72.4283032,14.9119658 Z M71.3255061,0.831696822 C77.2906797,0.831696822 82.2687579,3.52962836 82.2687579,8.31648411 C82.2687579,12.3060147 79.3040831,14.0923716 75.4297702,15.0804352 C79.533066,16.0680147 83.4465917,18.0819022 83.4465917,22.6412274 C83.4465917,28.0748509 78.6587677,31.5328313 72.0105183,31.5328313 L57.4190318,31.5328313 L57.4190318,31.171687 L62.3201369,31.1687824 L62.3201369,1.19526161 L57.4190318,1.19526161 L57.4190318,0.831696822 L71.3255061,0.831696822 Z M102.438132,1.09795599 L102.434743,11.7788215 L102.35535,11.7773692 L102.346152,11.5454817 C102.346152,9.7596088 99.8496088,0.715511002 94.1502103,0.715511002 C90.3499658,0.715511002 88.9818778,3.41489487 88.9818778,6.30308068 C88.9818778,15.2702054 105.09201,10.6348753 105.09201,21.8051736 C105.09201,27.5810611 100.038895,31.9883765 95.9733594,31.9883765 C92.5158631,31.9883765 89.6281614,30.0122494 87.7657995,30.0122494 C87.0439951,30.0122494 86.3609193,30.3162689 85.5621418,30.9630367 L85.5592372,19.4611247 L85.6425037,19.4611247 L85.6541222,19.6247531 C85.7107628,20.8785917 88.411599,31.6083521 95.5550905,31.6083521 C98.8610611,31.6083521 101.673726,29.5189438 101.673726,25.7569438 C101.673726,17.2836088 85.828401,21.1971345 85.828401,10.2926112 C85.828401,5.80929095 88.8303521,0.375667482 94.1497262,0.375667482 C96.6574034,0.375667482 98.203643,1.7694132 99.8873692,1.7694132 C101.121359,1.7694132 101.901257,1.04470416 102.433291,0.474425428 C102.433775,0.47394132 102.438132,0.831696822 102.438132,1.09795599 Z" id="Shape" fill="#002B51"></path>
        </g>
    </g>
</svg>