<?xml version="1.0" encoding="UTF-8" standalone="no"?>
<svg
   xmlns:dc="http://purl.org/dc/elements/1.1/"
   xmlns:cc="http://creativecommons.org/ns#"
   xmlns:rdf="http://www.w3.org/1999/02/22-rdf-syntax-ns#"
   xmlns:svg="http://www.w3.org/2000/svg"
   xmlns="http://www.w3.org/2000/svg"
   class="nicermediapages-SVG"
   xml:space="preserve"
   enable-background="new 0 0 752.4 212.4"
   viewBox="0 0 749.99998 210.00001"
   y="0px"
   x="0px"
   id="Layer_1"
   version="1.1"><metadata
     id="metadata43"><rdf:RDF><cc:Work
         rdf:about=""><dc:format>image/svg+xml</dc:format><dc:type
           rdf:resource="http://purl.org/dc/dcmitype/StillImage" /><dc:title></dc:title></cc:Work></rdf:RDF></metadata><defs
     id="defs41" /><rect
     y="0.49999863"
     x="0.49999183"
     height="209.00002"
     width="749"
     id="rect3735"
     style="opacity:1;fill:#064e7e;fill-opacity:1;fill-rule:evenodd;stroke:#000000;stroke-width:0.99999994;stroke-linecap:butt;stroke-linejoin:miter;stroke-miterlimit:4;stroke-dasharray:none;stroke-dashoffset:0;stroke-opacity:1" /><path
     id="polyline25"
     d="m 267.797,58.246 50.474,0 10.473,53.57 11.421,-53.57 49.13,0 0,19.654 -8.738,0 0,55.496 8.738,0 0,19.656 -42.521,0 0,-19.656 7.228,0 0,-54.541 -18.271,74.197 -22.024,0 -17.461,-75.152 0,55.496 7.466,0 0,19.656 -35.915,0 0,-19.656 8.595,0 0,-55.496 -8.595,0 0,-19.654"
     style="fill:#ffffff"
     transform="translate(0,-2.3999939)" /><path
     d="m 536.077,130.99601 5.776,0 0,19.656 -30.763,0 0,-44.405 c 0,-5.39 -2.44,-7.693004 -6.312,-7.693004 -4.486,0 -8.365,4.404004 -8.565,10.558004 l 0,21.885 7.034,0 0,19.656 -37.529,0 0,-19.656 5.643,0 0,-31.407004 -5.643,0 0,-19.662 27.941,0 0,13.154 c 5.121,-8.641 12.944,-14.663 23.328,-14.663 13.579,0 18.755,7.801 19.089,20.348 l 0,32.229004"
     id="path27"
     style="fill:#ffffff" /><path
     d="m 586.639,107.36201 c 0.374,-5.18 -1.465,-11.571004 -8.465,-11.571004 -8.051,0 -8.331,8.499004 -8.331,11.571004 l 16.796,0 0,0 z m 23.909,18.984 c -2.327,17.079 -14.335,26.08 -32.094,26.08 -18.548,0 -34.795,-9.286 -34.795,-36.858 0,-17.552004 7.783,-37.148004 33.846,-37.148004 26.063,0 35.356,18.274 33.979,41.650004 l -42.297,0 c 0,5.457 0.896,15.152 9.641,15.152 7.242,0 8.96,-6.28 9.375,-8.876 l 22.345,0"
     id="path29"
     style="fill:#ffffff" /><path
     d="m 416.836,115.42101 c 0,4.397 0,17.922 9.929,17.922 9.936,0 9.936,-13.524 9.936,-17.922 0,-4.388 0,-17.911004 -9.936,-17.911004 -9.929,0 -9.929,13.524004 -9.929,17.911004 l 0,0 z m -25.528,0 c 0,-22.509004 11.554,-37.001004 35.457,-37.001004 23.909,0 35.464,14.492 35.464,37.001004 0,22.522 -11.555,37.005 -35.464,37.005 -23.904,0 -35.457,-14.482 -35.457,-37.005"
     id="path31"
     style="fill:#ffffff" /><path
     d="m 648.419,79.928006 0,19.662 -5.644,0 9.535,30.583004 8.865,-30.583004 -5.904,0 0,-19.662 33.772,0 0,19.662 -5.91,0 -18.936,52.191004 c -8.157,22.57 -16.996,28.771 -33.083,28.771 -6.713,0 -10.898,-1.087 -14.529,-1.909 l 0,-19.532 c 3.852,0.813 7.342,1.458 10.691,1.458 4.666,0 8.364,-1.381 10.243,-5.699 0.534,-1.095 0.44,-0.941 0.855,-2.031 l -19.751,-53.249004 -5.91,0 0,-19.662 35.706,0"
     id="path33"
     style="fill:#ffffff" /><path
     d="m 73.703,103.28101 c 0.01,14.931 10.046,31.021 32.061,31.021 l 27.457,0 c 1.187,0 2.199,-0.979 2.199,-2.185 l 0,-57.785004 c -0.01,-3.409 1.719,-6.08 4.517,-6.987 2.708,-0.874 5.68,0.235 7.502,2.926 0,0 38.807,63.405004 38.807,63.415004 0.451,0.636 0.979,0.842 1.297,0.733 0.374,-0.128 0.759,-0.74 0.753,-1.929 l 0,-58.145004 c -0.004,-3.401 1.718,-6.083 4.51,-6.986 2.707,-0.871 5.673,0.238 7.498,2.929 7.723,12.821 38.572,63.021004 38.804,63.408004 0.407,0.565 0.949,0.87 1.38,0.735 0.485,-0.163 0.796,-0.888 0.796,-1.924 l 0,-76.671004 -10.664,0 0,44.732004 c 0,0 -7.048,-12.117004 -19.065,-33.128004 -11.768,-20.535 -33.967,-12.02 -33.967,5.654 l 0,27.459004 c 0,0 -6.88,-12.120004 -18.898,-33.121004 -11.764,-20.542 -34.006,-12.029 -34.006,5.645 l 0,47.298004 c 0.004,1.715 -1.233,3.23 -3.059,3.23 l -14.549,0 c -31.479,0.038 -28.668,-40.919004 -1.873,-40.957004 11.902,-0.014 16.081,0 16.081,0 l 0,-10.715 -16.659,0 c -21.268,0.03 -30.932,16.273 -30.922,31.348004"
     id="path35"
     style="fill:#ffffff" /><path
     d="m 246.458,55.836006 0,76.664004 c 0.01,3.438 -1.672,6.115 -4.413,6.97 -2.628,0.842 -5.442,-0.242 -7.271,-2.849 -0.314,-0.513 -31.171,-50.733004 -38.813,-63.476004 -0.515,-0.761 -1.18,-0.88 -1.585,-0.744 -0.571,0.176 -0.896,0.904 -0.896,1.94 l 0,58.149004 c 0.014,4.118 -2.247,6.31 -4.38,6.969 -2.584,0.843 -5.369,-0.255 -7.19,-2.857 0,0 -38.81,-63.457004 -38.81,-63.477004 -0.522,-0.758 -1.188,-0.871 -1.599,-0.741 -0.575,0.187 -0.902,0.894 -0.902,1.933 l 0,57.799004 c 0,4.142 -3.31,7.468 -7.378,7.468 l -27.457,0 c -25.572,0 -37.232,-18.814 -37.246,-36.298 -0.014,-18.186004 12.377,-36.610004 36.098,-36.638004 l 16.666,0 0,-10.826 -14.59,0 c -65.444,0 -64.815,94.708004 0.869,94.756004 l 25.683,0 c 11.035,0 18.139,-6.627 18.126,-18.91 l 0,-24.001 c 0,0 14.396,24.258 20.059,33.76 9.608,16.158 32.862,12.977 32.802,-7.229 l 0,-26.515 c 0,0 14.399,24.251 20.059,33.753 9.611,16.155 32.866,12.977 32.807,-7.225 l 0,-78.375004 -10.639,0"
     id="path37"
     style="fill:#ffffff" /></svg>