<svg xmlns="http://www.w3.org/2000/svg" xmlns:xlink="http://www.w3.org/1999/xlink" viewBox="0 0 1200 753">
    <defs>
        <path id="a" d="M0 0h1200v753H0z"/>
        <linearGradient id="c" x1="44.408%" x2="67.386%" y1="75.314%" y2="1.584%">
            <stop offset="0%" stop-color="#193265"/>
            <stop offset="73.2%" stop-color="#193265" stop-opacity="0"/>
        </linearGradient>
        <linearGradient id="d" x1="44.408%" x2="60.233%" y1="75.314%" y2="24.536%">
            <stop offset="0%" stop-color="#193265" stop-opacity=".5"/>
            <stop offset="100%" stop-color="#193265" stop-opacity="0"/>
        </linearGradient>
        <linearGradient id="e" x1="41.278%" x2="63.481%" y1="85.212%" y2="-4.426%">
            <stop offset="0%" stop-color="#193265"/>
            <stop offset="81.7%" stop-color="#193265" stop-opacity="0"/>
        </linearGradient>
    </defs>
    <g fill="none" fill-rule="evenodd">
        <mask id="b" fill="#fff">
            <use xlink:href="#a"/>
        </mask>
        <use fill="#27488C" fill-rule="nonzero" xlink:href="#a"/>
        <g mask="url(#b)">
            <path fill="url(#c)" fill-rule="nonzero" d="M757.382 359.229l-414.386 182.1L521.568 644.43l394.947-196.963z" opacity=".6" transform="translate(0 -7)"/>
            <path fill="#FFF" fill-rule="nonzero" d="M0-3v581.448l210.539 121.554 207.053-120.325 105.679 61.013L1200 247.419V-3z"/>
            <g opacity=".4">
                <path d="M247.905 376.103l-.539.314 316.65 182.817 11.413-6.632-.518-.299-10.874 6.319z"/>
                <path d="M342.91 536.56l-132.352 76.915L0 491.91V753h1200V247.419L523.271 640.69z"/>
                <path fill="#F4F8FE" fill-rule="nonzero" d="M1200 118.716L989.179-3h-59.394L1200 153.01v-34.294zM1200-3h-23.343L1200 10.477V-3zm0 26.696L1153.761-3h-59.396L1200 57.988V23.696zm0 47.515L1071.462-3h-59.387L1200 105.498V71.211zM906.882-3h-59.415l2.123 1.226-11.402 6.625L824.59-3h-59.409l43.399 25.057-11.402 6.628L742.3-3h-59.408l84.679 48.89-11.403 6.625L660.011-3h-59.408L726.56 69.722l-11.402 6.628L577.72-3h-59.407L685.55 93.555l-11.404 6.626L495.431-3h-59.408l208.516 120.386-11.413 6.635L413.119-3h-59.387l249.796 144.22-11.414 6.633L330.827-3h-59.386l291.076 168.052-11.414 6.634L248.538-3H88.159l22.523 13.004-11.415 6.634L65.254-3H5.868l63.804 36.837-11.414 6.633L0 6.834v34.289L28.66 57.67l-11.414 6.633L0 54.346v71.01l316.443 182.698-11.403 6.628L0 138.568v34.298l275.432 159.021-11.414 6.632L0 186.09v34.288l234.422 135.344-11.413 6.632L0 233.601v34.288l193.409 111.666-11.413 6.633L0 281.112v50.461l523.29 302.123L1200 240.435v-74.204L906.882-3zM204.858 6.069l316.649 182.816-11.414 6.633-316.65-182.817 11.415-6.632zm-41.022 23.838l316.649 182.818-11.403 6.627-316.65-182.818 11.404-6.627zM122.825 53.74l316.649 182.817-11.402 6.627-316.65-182.818 11.403-6.626zM81.813 77.573l316.65 182.817-11.403 6.627L70.411 84.201l11.402-6.628zM29.4 108.033l11.404-6.628 316.648 182.818-11.402 6.627L29.4 108.033zm493.606 475.034L206.354 400.25l11.417-6.633L534.42 576.436l-11.414 6.631zm52.423-30.465l-11.413 6.632-316.65-182.817.539-.313-.518-.299 11.401-6.626 316.65 182.817-.528.307.519.299zm29.618-17.813l-316.65-182.816 11.404-6.628 316.648 182.819-11.402 6.625zm41.009-23.832L329.407 328.14l11.413-6.635 316.65 182.819-11.414 6.633zm41.011-23.833l-316.65-182.817 11.414-6.633L698.482 480.49l-11.415 6.634zm41.011-23.832L411.429 280.474l11.415-6.632L739.492 456.66l-11.414 6.632zm41.002-23.228L452.431 257.247l11.401-6.626 316.65 182.817-11.402 6.626zm41.01-23.833L493.44 233.415l11.404-6.628 316.648 182.819-11.402 6.625zm41.009-23.832L534.45 209.583l11.413-6.635 316.65 182.819-11.414 6.632zm41.011-23.832L575.46 185.75l11.414-6.633 316.651 182.816-11.415 6.634zm41.011-23.833L616.472 161.917l11.415-6.632 316.648 182.818-11.414 6.631zm41.011-23.834L657.483 138.083l11.413-6.633 316.648 182.818-11.412 6.632zm41.021-23.838L698.506 114.246l11.402-6.629 316.649 182.817-11.404 6.628zm41.01-23.832L739.516 90.411l11.401-6.626 316.652 182.818-11.406 6.627zm41.012-23.833L780.525 66.578l11.403-6.625 316.648 182.817-11.401 6.627zm41.01-23.834L821.536 42.747l11.401-6.627 316.647 182.818-11.399 6.625zM862.546 18.913l11.403-6.626 316.647 182.817-11.404 6.627L862.546 18.913zm-599.83 506.473l-11.414 6.633L0 386.928v34.289L221.708 549.22l-11.415 6.631L0 434.44v50.463L210.577 606.48l126.305-73.4L0 338.582v35.125l262.716 151.679z"/>
                <path fill="#D0DAEA" fill-rule="nonzero" d="M69.672 33.837L5.868-3H0v9.834L58.258 40.47l11.414-6.633zM28.66 57.67L0 41.123v13.223l17.246 9.957L28.66 57.67zm234.056 467.716L0 373.707v13.221l251.302 145.091 11.414-6.633zm-41.008 23.834L0 421.217v13.223l210.293 121.411 11.415-6.631zM110.683 10.004L88.159-3H65.254l34.014 19.638 11.415-6.634z"/>
                <path fill="#D0DAEA" fill-rule="nonzero" d="M523.29 633.696L0 331.573v7.009L336.882 533.08l-126.305 73.4L0 484.903v7.007l210.558 121.565L342.91 536.56l180.361 104.13L1200 247.419v-6.984L523.29 633.696zM1200 10.477L1176.657-3h-22.896L1200 23.696V10.477zm0 47.511L1094.365-3h-22.903L1200 71.211V57.988zm0 47.51L1012.075-3h-22.896L1200 118.716v-13.218zm0 47.512L929.785-3h-22.903L1200 166.231V153.01zM849.59-1.774L847.467-3H824.59l13.598 7.851 11.402-6.625zm24.359 14.061l-11.403 6.626 316.646 182.818 11.405-6.627L873.949 12.287zm-52.413 30.46l316.649 182.816 11.4-6.625L832.938 36.12l-11.402 6.627zM767.57 45.89L682.892-3h-22.881l96.156 55.516 11.403-6.626z"/>
                <path fill="#D0DAEA" fill-rule="nonzero" d="M780.525 66.578l316.65 182.819 11.402-6.628L791.929 59.952l-11.404 6.626zm-53.965 3.144L600.603-3H577.72l137.437 79.35 11.403-6.628zm12.956 20.689l316.647 182.819 11.406-6.626L750.917 83.785l-11.401 6.626zm-41.01 23.835l316.647 182.816 11.405-6.627-316.65-182.818-11.402 6.629zm-41.023 23.837L974.132 320.9l11.413-6.632L668.896 131.45l-11.413 6.633zm-41.011 23.834l316.649 182.817 11.414-6.632-316.648-182.818-11.415 6.633zm-53.954 3.135L271.441-3h-22.903l302.566 174.687 11.414-6.635zm-41.01 23.834L204.858 6.069l-11.415 6.632 316.651 182.818 11.414-6.633zM193.409 379.554L0 267.889v13.223l181.996 105.076 11.413-6.634zM534.45 209.583l316.649 182.816 11.415-6.631-316.651-182.82-11.413 6.635zm-53.965 3.143L163.836 29.907l-11.404 6.627 316.65 182.819 11.403-6.627zm12.954 20.689L810.09 416.231l11.402-6.625-316.648-182.819-11.405 6.628zm-41.008 23.832L769.08 440.064l11.402-6.626-316.65-182.817-11.401 6.626zm-53.967 3.143L81.813 77.573l-11.402 6.628 316.65 182.817 11.403-6.628zm-82.021 47.665L0 125.356v13.212l305.04 176.115 11.403-6.628zM575.46 185.75l316.65 182.817 11.415-6.633-316.651-182.817-11.414 6.633zm-164.031 94.724l316.649 182.818 11.414-6.633-316.648-182.818-11.415 6.633zm-82.022 47.666l316.649 182.817 11.415-6.632-316.651-182.82-11.413 6.635zm-41.011 23.832l316.651 182.817 11.402-6.626-316.648-182.819-11.405 6.628zm-40.491 24.131l316.132 182.519 10.874-6.319-316.132-182.518-10.874 6.318z"/>
                <path fill="#D0DAEA" fill-rule="nonzero" d="M258.789 369.178l-11.401 6.626.517.299 10.874-6.318 316.132 182.518.528-.307-316.65-182.818zm111.628-64.871l316.65 182.817 11.415-6.633-316.651-182.817-11.414 6.633zM206.354 400.25l316.652 182.817 11.414-6.631-316.649-182.819-11.417 6.633zM808.58 22.057L765.181-3H742.3l54.878 31.685 11.402-6.628zM685.55 93.555L518.312-3h-22.881l178.715 103.181 11.404-6.626zm-41.012 23.831L436.022-3h-22.903l220.006 127.021 11.413-6.635zm-41.01 23.834L353.732-3h-22.905l261.287 150.853 11.414-6.633zm-164.053 95.337L122.825 53.74l-11.403 6.626 316.65 182.818 11.403-6.627zm-82.022 47.667L40.805 101.405 29.4 108.033l316.651 182.818 11.402-6.627zm-82.021 47.664L0 172.867v13.223l264.018 152.431 11.414-6.633zm-41.01 23.834L0 220.377v13.224l223.009 128.753 11.413-6.632z"/>
            </g>
            <path fill="url(#d)" fill-rule="nonzero" d="M445.458 421.111L31.073 603.212l178.572 103.1L604.59 509.35z" opacity=".6" transform="translate(0 -7)"/>
            <path fill="#FFF" fill-rule="nonzero" d="M1168.831 143.104l.022-6.998L927.912-3H0v581.448l210.539 121.554z"/>
            <g fill-rule="nonzero" opacity=".2">
                <path fill="#F4F8FE" d="M1082.929 135.247l-1.479.859-9.922 5.766L820.601-3h-59.409l280.731 162.078-11.412 6.631L738.294-3H596.609L618.89 9.864l-11.411 6.631L573.714-3h-59.391l63.559 36.695-11.418 6.635L491.414-3h-59.409l104.853 60.538-11.401 6.624L409.128-3H349.72l146.129 84.368-11.402 6.628L326.839-3H267.43l187.408 108.203-11.403 6.625L244.547-3h-59.411l228.691 132.034-11.402 6.627L162.257-3h-59.409l269.971 155.867-11.405 6.626L79.966-3H20.555l311.252 179.698-11.414 6.635L3.744.515 9.793-3H0v35.641l290.797 167.891-11.414 6.633L0 45.865v34.286l249.785 144.213-11.413 6.634L0 93.374v34.288l208.774 120.536-11.415 6.634L0 140.885v34.3l167.753 96.852-11.405 6.626L0 188.395v34.3l126.741 73.175-11.401 6.626L0 235.905v34.3l85.732 49.497-11.404 6.626L0 283.416v34.299l44.722 25.82-11.401 6.627L0 330.925v34.299l3.711 2.143L0 369.524v43.214l303.704 175.344-11.41 6.632L0 425.958v34.289l262.695 151.667-11.413 6.632L0 473.469v34.287l221.687 127.992-11.413 6.631L0 520.979v50.462l210.558 121.565 958.295-556.9L927.912-3h-84.43l239.447 138.247zM333.314 570.876l-.848 1.469L15.817 389.526l.848-1.469.848-1.469.843.487 9.711-5.643L344.715 564.25l-11.401 6.626zm41.011-23.833L57.675 364.226l11.401-6.626 316.649 182.816-11.4 6.627zm41.012-23.834L98.687 340.392l11.402-6.624 316.649 182.816-11.401 6.625zm41.01-23.832L139.697 316.56l11.402-6.627 316.65 182.819-11.402 6.625zm41.011-23.833L180.707 292.727l11.403-6.627 316.65 182.817-11.402 6.627zm41.009-23.833L221.719 268.896l11.414-6.635 316.648 182.818-11.414 6.632zm41.012-23.832L262.729 245.06l11.414-6.631 316.648 182.815-11.412 6.635zm41.009-23.833L303.74 221.228l11.414-6.632 316.648 182.818-11.414 6.632zm41.01-23.834L344.75 197.396l11.414-6.635L672.812 373.58l-11.414 6.632zm41.023-23.837L385.772 173.558l11.403-6.627 316.647 182.817-11.401 6.627zm41.01-23.833L426.783 149.724l11.402-6.627 316.649 182.817-11.403 6.628zm41.01-23.833l-316.65-182.818 11.405-6.626 316.647 182.816-11.402 6.628zm41.01-23.834L508.804 102.059l11.401-6.627L836.856 278.25l-11.405 6.625zm41.011-23.832L549.812 78.225l11.403-6.625 316.65 182.817-11.403 6.626zm41.013-23.833L590.824 54.394l11.413-6.635 316.65 182.818-11.412 6.633zm41.013-23.835L631.838 30.558l11.411-6.631 316.65 182.817-11.411 6.631zm41.007-23.831L672.846 6.729 684.26.095l316.651 182.817-11.416 6.632z"/>
                <path fill="#F4F8FE" d="M98.687 340.392l316.65 182.817 11.401-6.625-316.649-182.816-11.402 6.624zm-80.332 46.684l315.807 182.331-.848 1.469 11.401-6.626L28.066 381.433l-9.711 5.643zm39.32-22.85l316.65 182.817 11.401-6.627L69.076 357.6l-11.401 6.626zm246.029 223.856L0 412.738v13.22l292.294 168.756 11.41-6.632z"/>
                <path fill="#AABCD6" d="M1168.831 143.104l.022-6.998-958.295 556.901L0 571.441v7.007l210.539 121.554 958.292-556.898zm-126.908 15.974L761.191-3h-22.897l292.217 168.709 11.412-6.631zM672.846 6.729l316.649 182.815 11.416-6.632L684.26.095l-11.414 6.634zm-53.955 3.135L596.609-3h-22.895l33.765 19.495 11.412-6.631zm12.947 20.694l316.65 182.817 11.411-6.631-316.65-182.817-11.411 6.631z"/>
                <path fill="#AABCD6" d="M590.824 54.394L907.475 237.21l11.413-6.633L602.237 47.759l-11.413 6.635zm-53.967 3.144L432.005-3h-22.877l116.328 67.162 11.401-6.624zm12.955 20.687l316.65 182.818 11.404-6.627-316.65-182.817-11.404 6.626zm-41.008 23.834l316.647 182.816 11.405-6.625L520.205 95.432l-11.401 6.627zm-53.966 3.144L267.43-3h-22.883l198.888 114.827 11.403-6.624zm12.953 20.688l316.65 182.818 11.403-6.628-316.648-182.816-11.405 6.626zm-53.964 3.143L185.136-3h-22.879l240.168 138.662 11.402-6.628zm12.956 20.69l316.648 182.818 11.404-6.628-316.649-182.817-11.403 6.627zm-41.011 23.834l316.649 182.817 11.402-6.628L397.176 166.93l-11.404 6.628zm-41.022 23.838l316.648 182.816 11.414-6.632-316.648-182.818-11.414 6.634zm-41.01 23.832l316.648 182.818 11.415-6.632-316.649-182.818-11.414 6.632zm-53.955 3.136L0 80.151v13.223l238.372 137.624 11.413-6.634zm-41.011 23.833L0 127.662v13.223l197.359 113.947 11.415-6.635zm12.945 20.699l316.648 182.815 11.414-6.632-316.648-182.818-11.414 6.635zm-53.966 3.141L0 175.185v13.21l156.348 90.268 11.405-6.626zm12.954 20.69l316.651 182.817 11.402-6.627-316.65-182.818-11.403 6.628zm-41.01 23.833l316.65 182.817 11.403-6.626L151.1 309.933l-11.403 6.627zm-53.965 3.143L0 270.206v13.21l74.328 42.913 11.404-6.626zM0 365.225v4.299l3.711-2.157L0 365.225zm262.729-120.164l316.65 182.818 11.412-6.634L274.143 238.43l-11.414 6.631zm-.034 366.854L0 460.247v13.222l251.282 145.078 11.413-6.632zm-41.008 23.832L0 507.755v13.224l210.273 121.399 11.414-6.631zM577.882 33.695L514.323-3h-22.909l75.05 43.331 11.418-6.636zm-82.033 47.673L349.72-3h-22.881l157.607 90.996 11.403-6.628zm585.601 54.738l1.479-.859L843.482-3h-22.881l250.927 144.872 9.922-5.766zm-708.632 16.761L102.848-3H79.966l281.447 162.493 11.405-6.626zm-52.425 30.466l11.414-6.635L20.555-3H9.793L3.744.515l316.649 182.818zm-29.596 17.199L0 32.641v13.224l279.383 161.3 11.414-6.633zM126.741 295.87L0 222.695v13.21l115.34 66.591 11.401-6.626zm-82.019 47.665L0 317.715v13.21l33.32 19.238 11.402-6.628zm287.744 228.822L15.825 389.539l.848-1.469 316.64 182.818-.847 1.469zM17.513 386.589l-.848 1.469 1.69-.982-.842-.487zm.842.487l-1.69.982 316.649 182.818.848-1.469L18.355 387.076z"/>
            </g>
            <g fill="#8398B2" fill-rule="nonzero" opacity=".8">
                <path d="M285.695 475.143c.103.06.2.125.29.195.971.759.703 1.825-.604 2.385-1.854.796-4.008 1.493-6.327 2.153-2.325.656-4.815 1.269-7.333 1.858-5.015 1.175-10.15 2.267-13.988 3.329-3.424.947-6.847 1.9-10.268 2.859-19.728 5.531-39.281 11.28-57.919 17.818-6.771 2.366-13.783 4.689-19.261 7.325-1.177.566-2.895.507-3.96-.108-1.231-.846-1.06-1.923.19-2.524 6.049-2.901 13.291-5.268 19.959-7.612 17.668-6.195 36.049-11.664 54.546-16.885 2.181-.616 4.361-1.228 6.544-1.837 2.54-.708 5.08-1.415 7.619-2.117 3.177-.878 6.883-1.707 10.606-2.555 3.726-.848 7.481-1.714 10.664-2.617 2.128-.601 3.996-1.22 5.412-1.829 1.187-.51 2.817-.423 3.83.162zm-47.506-23.918c.619.357 1.227.723 1.808 1.102 1.099.701 1.009 1.781-.203 2.411-1.158.609-2.944.575-4.043-.06a51.581 51.581 0 0 0-1.716-1.039c-4.312-2.49-9.728-4.671-15.388-6.672-5.681-2.017-11.597-3.859-16.864-5.71a5157.26 5157.26 0 0 1-49.731-17.733 3916.907 3916.907 0 0 1-21.808-7.993 2976.53 2976.53 0 0 1-37.741-14.253c3.187 1.821 6.441 3.554 9.669 5.041 3.458 1.6 6.896 2.916 10.106 3.771.328.086.613.203.855.342.846.489 1.125 1.251.603 1.917-.676.859-2.424 1.231-3.902.84-3.837-1.025-7.612-2.492-11.326-4.203-3.707-1.714-7.346-3.675-10.856-5.702-6.679-3.856-12.895-7.959-17.938-10.967-1.053-.63-1.116-1.622-.146-2.289.971-.667 2.669-.796 3.919-.303 21.662 8.597 43.514 16.897 65.571 25.02 8.012 2.948 16.033 5.87 24.063 8.767a5168.872 5168.872 0 0 0 41.704 14.827c5.081 1.788 11.023 3.638 16.889 5.717 5.864 2.085 11.669 4.393 16.475 7.169z"/>
                <path d="M87.153 419.208c14.017-.479 28.692-2.305 43.09-3.679 2.509.929 5.015 1.853 7.528 2.777l-1.06.091c-15.7 1.338-32.391 3.608-48.8 4.203a30.522 30.522 0 0 1-5.414.504 28.172 28.172 0 0 1-5.698-.563 3.707 3.707 0 0 1-1.103-.401c-.778-.45-1.089-1.135-.698-1.778.536-.888 2.214-1.353 3.749-1.04 1.235.251 2.451.372 3.706.369 1.32-.007 2.636-.14 3.93-.398a4.56 4.56 0 0 1 .77-.085zm-14.924 42.7c24.236-13.965 50.705-27.403 79.823-38.385l5.523 2c-29.549 10.957-56.485 24.57-81.184 38.81-1.151.662-3.006.66-4.157-.004-1.154-.674-1.154-1.754-.005-2.421zm96.323-15.42c.632.364.962.886.839 1.426-.168.792-1.265 1.401-2.64 1.475-4.204.225-8.419.033-12.499-.125-4.073-.163-8.001-.292-11.576-.041-.825.056-1.629.132-2.414.23a76.753 76.753 0 0 0 5.484 2.608c2.1.897 4.272 1.687 6.374 2.275.306.028.607.085.895.172.491.151 1.854.483 2.377.586.43.087.802.227 1.104.402.487.281.793.655.857 1.053 3.471 1.587 7.253 3.116 11.074 4.69 5.243 2.161 10.576 4.402 15.262 7.056.972.561 1.16 1.418.482 2.089.66.091 1.14.252 1.514.468.701.405 1.035 1.005.79 1.601-.377.921-1.958 1.486-3.551 1.264a43.236 43.236 0 0 1-5.995-1.25c-1.964-.568-3.832-1.279-5.422-2.197-1.009-.583-1.903-1.247-2.602-2.002-.55-.597-.439-1.327.282-1.858.21-.152.44-.274.682-.365a333.06 333.06 0 0 0-4.838-2.028c-4.967-2.047-10.055-4.084-14.652-6.39-2.819-.737-5.542-1.73-8.112-2.822-3.515-1.493-6.744-3.188-9.407-4.726-.069-.041-.146-.084-.229-.132-.67-.395-.979-.948-.823-1.497.163-.545.771-1.01 1.629-1.25a38.779 38.779 0 0 1 4.595-.953c-3.584-.288-7.197-.631-10.817-1.134-.547-.077-1.022-.236-1.394-.451-.702-.405-1.037-1.006-.795-1.606.384-.918 1.965-1.482 3.551-1.264 6.082.852 12.461 1.234 19.006 1.736 6.525.504 13.231 1.135 19.901 2.562a3.75 3.75 0 0 1 1.068.398zm94.833 17.344c.693.848.062 1.865-1.412 2.264-10.714 2.905-21.429 5.315-31.986 7.848-2.551.61-5.094 1.228-7.625 1.86a417.687 417.687 0 0 1-6.032-2.202c3.788-.97 7.584-1.908 11.388-2.813 10.646-2.548 21.265-4.94 31.744-7.783 1.153-.311 2.481-.153 3.335.34.237.137.437.3.588.486z"/>
                <path d="M216.329 473.602c2 .748 4.01 1.481 6.032 2.202 8.225 2.933 16.634 5.658 25.202 8.293-2.183.609-4.363 1.221-6.544 1.837-8.521-2.665-16.917-5.447-25.158-8.461-1.96-.718-3.91-1.448-5.853-2.193a349.649 349.649 0 0 1-4.148-1.62c-.204-.082-.408-.17-.715-.303-.3-.129-.676-.295-1.116-.49-.887-.387-2.048-.896-3.362-1.471a503.226 503.226 0 0 0-4.024-1.743 4.91 4.91 0 0 1-2.789-.044c-2.104-.701-3.915-1.534-5.556-2.393-1.653-.859-3.147-1.751-4.642-2.592-1.018-.587-1.179-1.492-.406-2.167.778-.682 2.298-.944 3.604-.623.567.144 1.147.317 1.785.523.624.206 1.3.442 2.015.708 1.435.527 3.043 1.161 4.707 1.843a441.146 441.146 0 0 1 9.588 4.088c1.799.789 3.229 1.423 3.911 1.714.172.077.306.133.325.136 2.365.942 4.747 1.859 7.144 2.756z"/>
                <path d="M195.889 479.521c4.683-1.55 9.395-2.945 14.12-4.242 1.942.745 3.893 1.475 5.853 2.193-5.742 1.52-11.427 3.156-17.041 5.013-12.691 4.195-24.825 7.984-38.164 11.424-3.477.896-6.957 2.009-10.508 3.119-3.558 1.105-7.18 2.211-10.986 3.078-1.123.257-2.354.084-3.16-.381a2.015 2.015 0 0 1-.664-.584c-.591-.878.149-1.869 1.655-2.212 3.401-.771 6.831-1.81 10.351-2.909 3.513-1.094 7.114-2.248 10.896-3.225 13.083-3.373 25.038-7.105 37.648-11.274zM211.408 407.85c.502.863-.257 1.799-1.719 2.131-16.205 3.655-31.714 8.248-46.571 13.529-1.861-.671-3.72-1.343-5.578-2.016a427.96 427.96 0 0 1 22.079-7.33c-10.946 1.29-21.947 2.375-32.974 3.364-2.531-.925-5.061-1.854-7.59-2.785 23.243-2.014 46.251-4.337 68.752-7.996 1.062-.173 2.153.012 2.885.435.316.182.564.408.716.668zM311.194 504.165c-.605.878-2.328 1.294-3.832.941-15.893-3.753-33.788-9.434-49.488-14.068-3.488-1.03-6.959-2.066-10.41-3.117 2.202-.617 4.407-1.232 6.613-1.845 2.146.645 4.302 1.286 6.466 1.924 15.789 4.664 33.608 10.307 49.023 13.946.377.087.705.215.976.372.812.469 1.107 1.194.652 1.847zM260.561 503.412c.656.379.983.922.847 1.468-.174.671-1.03 1.22-2.155 1.394-3.446.516-6.915.446-10.187.388a157.98 157.98 0 0 0-4.602-.044c1.777 1.519 4.054 3.041 6.645 4.537 4.099 2.366 8.967 4.67 13.784 6.871 4.817 2.201 9.589 4.303 13.54 6.333.925.53 1.208 1.212.838 1.836-.222.374-.653.681-1.206.883a3.04 3.04 0 0 1-.563.3 4.102 4.102 0 0 1-.675.202c.688.409 1.384.817 2.089 1.225 10.456 6.042 22.749 11.832 34.737 16.609 1.08-.455 2.598-.438 3.654.09.431.213.855.431 1.276.652 4.319 2.15 9.355 4.182 14.255 5.522.312.086.586.2.818.334.859.497 1.141 1.27.588 1.94-.689.852-2.443 1.213-3.915.812a81.942 81.942 0 0 1-7.739-2.568c-.755.113-1.581.051-2.287-.201-15.26-5.452-31.834-12.861-45.542-20.776-4.348-2.511-8.41-5.077-12.045-7.646-.889-.623-.899-1.511-.044-2.142-.422-.275-.918-.502-1.417-.729-4.868-2.23-9.903-4.601-14.295-7.137-4.105-2.37-7.677-4.888-9.99-7.635-.397-.472-.394-1.021.004-1.497.399-.468 1.147-.807 2.025-.917a40.745 40.745 0 0 1 2.371-.212c-.34-.07-.673-.144-.999-.223a15.212 15.212 0 0 1-2.148-.675 3.163 3.163 0 0 1-.364-.179c-1.006-.581-1.173-1.516-.317-2.206.944-.763 2.782-.937 4.109-.384.255.111.911.299 1.79.476.88.177 1.995.351 3.224.531 2.458.354 5.369.704 8.127 1.208 1.848.34 3.639.741 5.252 1.32.188.07.362.15.517.24z"/>
            </g>
        </g>
        <g fill-rule="nonzero" mask="url(#b)">
            <g opacity=".6">
                <path fill="url(#c)" d="M507.067.971L.457 288.829l175.971 101.595L582 159.977V44.233z" transform="translate(618 235)"/>
                <path fill="url(#e)" d="M451.343 317.227l-99.794 52.607 11.323 6.537 99.793-52.606z" transform="translate(618 235)"/>
            </g>
            <path fill="#FFF" d="M960.703 397.378l.366.211v132.813L785.937 631.513l-87.566-50.554L704 573l-55-32-9.006 6.254-29.19-16.852V431.53l-.507-.536-28.657-16.546 116.755-202.22L873.52 313.34 989 381l-28 16.114-.297.264z"/>
            <path fill="#F2F2F2" d="M647.291 452.721v92.323l-7.297 4.212V456.57z"/>
            <path fill="#FFE066" d="M705.668 486.062v92.686l-58.377-33.704v-92.686z"/>
            <path fill="#1A3366" d="M661.993 510.282c-.496-.857-1.18-1.608-1.933-2.044-.753-.432-1.436-.473-1.933-.187l-3.648 2.104 3.864 6.696 3.649-2.107c.495-.284.804-.897.804-1.766.001-.869-.308-1.835-.803-2.696z"/>
            <path fill="#264D99" d="M656.411 510.346c-.753-.435-1.437-.474-1.932-.189-.497.289-.805.902-.805 1.769 0 .868.308 1.838.805 2.695.495.862 1.179 1.611 1.932 2.045.753.436 1.438.474 1.933.188.497-.284.805-.896.805-1.769 0-.868-.308-1.834-.805-2.695-.495-.859-1.18-1.609-1.933-2.044z"/>
            <path fill="#F4F8FE" d="M895.394 494.488l7.295 4.212-58.377 33.704-7.295-4.212z"/>
            <path fill="#FFF" d="M902.689 431.293V498.7l-7.295-4.212v-67.407z"/>
            <path fill="#85A3E0" d="M895.394 427.081v67.407l-58.377 33.704v-67.407z"/>
            <path fill="#ADC2EB" d="M866.204 511.339l29.19-16.851v-33.703l-29.19 50.554zm-7.296-63.193l7.296-4.214-29.187 50.556v-8.426l21.891-37.916z"/>
            <path fill="#E9F1FE" d="M785.937 498.7v132.813l175.132-101.111V397.589l-87.566-50.556L785.937 498.7zm58.375-33.703l58.377-33.704V498.7l-58.377 33.704v-67.407z"/>
            <path fill="#FFF" d="M785.937 498.7v132.813l-87.566-50.554v-90.684l-58.377-33.705v90.684l-29.19-16.852V397.589z"/>
            <path fill="#FC0" d="M961.068 397.589l29.189-16.852-116.755-67.409-116.755 202.226 29.19-16.854 87.565-151.667z"/>
            <path fill="#FFE066" d="M756.764 515.56L581.64 414.448l116.755-202.22L873.52 313.34z"/>
            <path fill="#FC0" d="M727.541 296.479l29.188-50.554 29.186 16.851-29.188 50.554z"/>
            <path fill="#1A3366" d="M961.068 498.7v33.704L785.937 633.515v-33.703z"/>
            <path fill="#264D99" d="M785.937 599.812v33.703l-87.566-50.554v-33.705l87.566 50.556zm-145.943-84.258v33.702l-29.19-16.852V498.7l29.19 16.854z"/>
            <path fill="#1A3366" d="M647.291 511.339v33.705l-7.297 4.212v-33.702z"/>
            <path fill="#FFF" d="M727.559 296.476v67.407l-29.188-16.851v-67.408z"/>
            <path fill="#E9F1FE" d="M756.747 279.624v33.704l-29.188 50.555v-67.407z"/>
            <path fill="#F4F8FE" d="M727.559 262.772l29.188 16.852-29.188 16.852-29.188-16.852z"/>
            <path fill="#FFF" d="M742.153 279.624l-14.594-8.427-14.592 8.427 14.592 8.426z"/>
            <path fill="#E9F1FE" d="M712.967 279.624l14.592-8.427v16.853z"/>
            <g>
                <path fill="#1A3366" d="M989.779 510.366l-.101 95.572-10.047 5.838.099-95.571z"/>
                <path fill="#264D99" d="M979.73 516.205l-.099 95.571-10.111-5.838.101-87.82z"/>
                <path fill="#FFF" d="M919.613 539.831l115.714-65.727 10.725 5.443.793 53.447-115.714 66.991-10.729-6.704-.789-53.45z"/>
                <path fill="#E9F1FE" d="M930.343 546.535l.788 53.45 115.714-66.991-.793-53.447z"/>
                <path fill="#FFF" d="M919.613 539.831l.789 53.45 10.729 6.704V546.08z"/>
                <path fill="#F4F8FE" d="M919.613 539.831l10.73 6.704 115.709-66.988-10.725-5.443z"/>
                <path fill="#1A3366" d="M948.556 552.308l.012 5.067-6.638 3.835.008 2.452 6.125-3.538.015 4.695-6.129 3.536.019 6.453-5.013 2.895-.053-18.67 11.654-6.725zm8.423-5.264c4.48-2.587 7.714-.583 7.731 5.018v.482c.018 5.599-3.245 11.408-7.7 13.981-4.456 2.574-7.693.567-7.709-5.034v-.479c-.017-5.598 3.22-11.394 7.678-13.968zm2.651 8.432v-.398c-.009-2.777-1.035-3.811-2.661-2.877-1.604.928-2.619 3.119-2.611 5.892v.4c.008 2.772 1.037 3.811 2.659 2.869 1.627-.936 2.618-3.112 2.613-5.886zm17.018-7.313l3.265 4.737-5.613 3.242-2.544-3.983-.814.47.016 5.444-4.99 2.881-.052-18.671 6.684-3.859c2.505-1.447 4.25-1.729 5.343-1.106.955.545 1.472 1.66 1.476 3.608v.162c.006 2.691-1.104 5.069-2.771 7.075zm-2.265-3.767v-.136c-.004-1.334-.727-1.584-1.816-.955l-1.651.951.015 4.138 1.624-.941c1.113-.641 1.83-1.751 1.828-3.057zm21.435-7.301l3.269 4.735-5.618 3.245-2.545-3.983-.811.471.015 5.44-4.989 2.883-.055-18.667 6.686-3.86c2.508-1.447 4.25-1.732 5.345-1.109.955.544 1.471 1.662 1.473 3.609v.162c.009 2.689-1.101 5.071-2.77 7.074zm-2.263-3.769l-.004-.134c0-1.333-.723-1.588-1.816-.954l-1.646.95.014 4.137 1.623-.938c1.115-.644 1.833-1.756 1.829-3.061zm18.012-17.399l.016 4.905-6.939 4.009.005 2.136 6.426-3.713.016 4.479-6.428 3.71.004 2.245 7.057-4.078.011 4.91-12.023 6.941-.053-18.668 11.908-6.876zm15.62-9.02l.052 18.669-4.502 2.603-4.875-5.495.026 8.293-4.92 2.842-.055-18.67 4.76-2.745 4.639 5.228-.02-7.894 4.895-2.831zm13.994-8.077l.013 5.042-3.966 2.29.039 13.628-5.016 2.896-.035-13.627-3.971 2.288-.014-5.04 12.95-7.477z"/>
                <g>
                    <path fill="#FC0" d="M1006.091 504.582l5.15 10.806-71.007 73.531-3.316-2.004-5.152-10.808 71.006-73.527 3.319 2.002z"/>
                    <path fill="#FC0" d="M1006.091 504.582l-71.007 73.528 5.15 10.809 71.007-73.531z"/>
                    <path fill="#E0B400" d="M931.766 576.107l5.152 10.808 3.316 2.004-5.15-10.809z"/>
                    <path fill="#FFE066" d="M1006.091 504.582l-3.319-2.002-71.006 73.527 3.318 2.003z"/>
                    <path fill="#1A3366" d="M998.556 515.907c2.469-2.553 4.506-2.768 5.355-.988.857 1.8.033 4.625-2.453 7.202l-2.625 2.72-2.942-6.174 2.665-2.76zm3.41 1.092l-.008-.018c-.473-.989-1.502-.776-2.648.411l-.781.809 1.496 3.139.779-.806c1.148-1.187 1.634-2.538 1.162-3.535zm-11.048 6.822l.693 1.45-3.663 3.794.445.935 3.315-3.435.643 1.352-3.316 3.431.469.981 3.71-3.842.692 1.454-5.604 5.805-2.946-6.171 5.562-5.754zm-10.347 10.712l.716 1.496-2.072 2.147 2.224 4.671-1.911 1.984-2.228-4.675-2.075 2.151-.714-1.5 6.06-6.274zm-10.847 11.231l2.943 6.171-1.679 1.74-4.566-.33 1.613 3.385-1.893 1.961-2.944-6.169 1.786-1.851 4.401.315-1.553-3.262 1.892-1.96zm-11.497 11.907l.69 1.455-3.662 3.794.445.931 3.321-3.433.641 1.347-3.316 3.435.465.982 3.71-3.842.694 1.453-5.605 5.806-2.939-6.171 5.556-5.757zm-9.979 16.337l2.673.444-2.212 2.291-2.281-.426-.836.867.889 1.867-1.918 1.986-2.94-6.173 3.269-3.381c1.055-1.095 1.901-1.606 2.569-1.663.571-.068 1.007.191 1.3.8.454.966.19 2.171-.513 3.388zm-1.356-1.266l-.009-.021c-.231-.484-.742-.321-1.385.345l-1.253 1.294.708 1.483 1.262-1.311c.648-.671.888-1.343.677-1.79z"/>
                </g>
            </g>
        </g>
    </g>
</svg>
