<svg xmlns="http://www.w3.org/2000/svg" viewBox="0 0 207 95">
    <g fill="none" fill-rule="evenodd">
        <path d="M-11-11h258v121H-11z"/>
        <path fill="#E4E4E4" d="M158.047 80.105h16.318V62.304h-16.318v17.8zm-138.21-3.086c-5.434 0-9.839-5.043-9.839-11.268 0-4.035 1.856-7.562 4.64-9.554-2.782-1.99-4.64-5.52-4.64-9.554 0-6.223 4.405-11.27 9.838-11.27 5.436 0 9.838 5.047 9.838 11.27 0 4.034-1.857 7.564-4.64 9.557 2.782 1.989 4.64 5.516 4.64 9.551 0 6.225-4.405 11.268-9.838 11.268zM207 51.92v7.418h-10.384v35.602h-62.304V62.304h-17.8v32.635H97.226V59.337H55.16c-.812 4.86-2.938 8.48-5.442 8.48s-4.63-3.475-5.442-8.335H40.29c-1.3 13.854-9.772 24.561-20.049 24.561C9.062 84.043 0 71.393 0 55.79c0-15.605 9.062-28.254 20.241-28.254 10.135 0 18.508 10.812 19.987 24.385h3.93c.71-5.25 2.93-9.484 5.56-9.484 2.63 0 4.851 4.234 5.559 9.484H207zM148.03 0l50.07 44.503-99.39-.006L148.03 0z"/>
    </g>
</svg>