<svg xmlns="http://www.w3.org/2000/svg" width="98" height="98" viewBox="0 0 98 98">
    <g fill="none" fill-rule="evenodd">
        <path fill="#FFF" d="M53.587.896H4.126A4.137 4.137 0 0 0 0 5.02V93.54a4.14 4.14 0 0 0 4.126 4.129h64.167a4.14 4.14 0 0 0 4.126-4.13V19.732L53.587.896z"/>
        <path fill="#E9F1FE" d="M93.26 27.14a407.28 407.28 0 0 0-.314-5.652H82.229a414.924 414.924 0 0 0-.312 5.652h5.367v.002h1.529v-.002h4.446zM89.399 89.45l.793-3.603h-5.205l2.602 11.822-1.809-8.22z"/>
        <path fill="#264D99" d="M85.78 89.45l1.81 8.22 1.809-8.22z"/>
        <path fill="#AABCD6" d="M87.582 27.14h2.755v-5.652h-2.755z"/>
        <path fill="#E9F1FE" d="M97.095 17.327l-.005-.138.005-.002v.14zm-.008 1.637l.008-.562v.24l-.008.322zm-5.73-10.058c-.015 0-.03-.002-.043-.003-.305-.025-1.027-.02-.771.467.052 1.229.105 2.458.162 3.687-.004-.096 1.594.22 1.73.264a5.22 5.22 0 0 1 1.61.831c.872.682 1.593 1.728 1.593 2.872 0 1.243.042 7.338.04 9.15-.001 1.901.014 3.804 0 5.706-.014 1.504.003 1.71.002 3.215 0 .615.006 1.232.007 1.85-1.513 2.234.173 3.965.838 4.522l.57.608h.86V14.053c0-1.47-1.302-2.709-2.386-3.524a8.26 8.26 0 0 0-4.213-1.623z"/>
        <path fill="#264D99" d="M85.049 21.488H90.13v-.002h2.819C92.159 9.184 91.125.697 91.144.698 90.227.09 88.742.003 88.02 0c-.248 0-.418.006-.418.006H87.575A9.183 9.183 0 0 0 87.159 0c-.722.003-2.208.09-3.125.698.02-.001-1.015 8.486-1.804 20.788h2.819v.002zM93.262 27.14l-2.997.001h-8.349c-.848 14.889-.715 38.153 3.071 58.707H90.191c1.988-10.79 3.07-26.518 3.381-38.938.2-7.946.084-12.85-.31-19.77"/>
        <path fill="#3163CF" d="M87.58.006h-.005A9.183 9.183 0 0 0 87.159 0c-.722.003-2.208.09-3.125.698.02-.001-1.015 8.486-1.804 20.788h2.819v.002h2.548V.006h-.017zM87.296 27.141h-5.38c-.848 14.889-.715 38.153 3.07 58.707h2.604V27.14h-.294v.001z"/>
        <path fill="#41547A" d="M15.888 33.683H56.53v-3.86H15.888zM15.888 42.885H56.53v-3.86H15.888zM15.888 52.087H56.53v-3.86H15.888zM15.888 61.29H56.53v-3.86H15.888z"/>
        <path fill="#36C" d="M36.897 83.274l-4.53-5.822c-.668-.863-2.123-.863-2.792 0l-3.134 4.028-3.134-4.028c-.67-.863-2.124-.863-2.793 0l-3.133 4.028-3.134-4.028a1.766 1.766 0 0 0-2.792 0l-4.531 5.822a1.769 1.769 0 1 0 2.791 2.174l3.136-4.028 3.133 4.028c.008.008.017.015.024.024.061.076.133.145.209.21.024.022.045.048.07.068l.007.007c.094.073.194.132.296.183.028.014.056.025.085.037.086.038.173.068.263.091a1.747 1.747 0 0 0 .441.062h.003c.118 0 .236-.016.352-.04.03-.006.058-.014.088-.022.09-.023.179-.053.266-.092.027-.012.055-.022.082-.035.103-.052.203-.11.297-.184l.008-.008c.024-.018.043-.042.066-.062.077-.067.15-.139.213-.216.007-.009.016-.015.023-.023l3.134-4.028 3.134 4.028c.008.01.018.016.026.026.039.048.085.091.13.136.041.041.08.084.126.12.01.008.017.019.028.027.034.027.073.044.109.068.051.034.102.07.156.099.053.027.108.048.163.07.051.021.101.043.153.058.059.018.118.029.178.04.052.01.105.021.157.026.058.006.115.005.172.005.058 0 .114 0 .172-.005.053-.005.105-.016.158-.026a1.8 1.8 0 0 0 .176-.04c.054-.015.105-.037.157-.059.053-.021.105-.042.157-.068.059-.031.114-.07.17-.107.03-.022.065-.037.095-.061.01-.007.016-.016.025-.024.049-.04.093-.086.138-.13.042-.043.085-.083.12-.128.01-.01.019-.017.027-.027l3.133-4.028 3.135 4.028a1.765 1.765 0 0 0 2.482.309c.771-.6.91-1.711.31-2.483"/>
        <path fill="#E9F1FE" d="M53.587 15.602a4.137 4.137 0 0 0 4.126 4.129h14.706L53.587.896v14.706z"/>
    </g>
</svg>
