<?xml version="1.0" encoding="UTF-8"?>
<svg viewBox="0 0 1005 163" version="1.1" xmlns="http://www.w3.org/2000/svg" xmlns:xlink="http://www.w3.org/1999/xlink">
    <!-- Generator: Sketch 51.3 (57544) - http://www.bohemiancoding.com/sketch -->
    <title>msnbc</title>
    <desc>Created with Sketch.</desc>
    <defs></defs>
    <g id="Page-1" stroke="none" stroke-width="1" fill="none" fill-rule="evenodd">
        <g id="msnbc" fill-rule="nonzero">
            <path d="M123.21,38 C119.39,28.5 110.06,18.3 92.61,19.7 C70.37,22.1 63.44,43.2 66.8,55.8 C57.94,49.9 42.88,47.3 29.73,58.4 C12.76,75.2 21.83,98 31.17,103.5 C20.88,102.5 4.63,109.4 1.03,127.4 C-2.79,149.7 14.41,162.7 31.17,162.7 L216.94,162.7 C236.31,162.7 247.06,146.2 245.86,130.5 C243.96,110.1 225.08,102.3 214.78,104 C223.39,99.2 234.88,76.9 217.4,59.4 C203.54,46.3 185.86,51.1 179.64,56.7 C182.99,45.8 177.5,23.3 155,19.7 C153.45,19.6 151.96,19.5 150.53,19.5 C133.36,19.5 125.64,31.9 123.21,38" id="Shape" fill="#FFFFFF"></path>
            <path d="M32.83,62 C23.02,70.7 19.45,90.6 37.13,102.3 L107.66,150.2 L73.46,72.6 C66.3,54.3 46.69,50.4 32.83,62" id="Shape" fill="#F37021"></path>
            <path d="M93.54,24.3 C82.08,24.5 64.86,38 72.52,58.6 L107.9,141.2 L120.32,54.4 C123.2,32.8 106.7,22.8 93.54,24.3" id="Shape" fill="#CC004C"></path>
            <path d="M125.84,51 L132.53,51 C132.53,51 136.1,51 136.59,52.7 C133.96,54.8 126.8,55.1 127.74,66.5 L138.99,141.2 L174.12,58.4 C181.31,39.9 166.22,24.5 152.84,24 C152.22,24 151.59,23.9 150.94,23.9 C138.93,23.9 125.17,32.6 125.84,51" id="Shape" fill="#6460AA"></path>
            <path d="M172.71,73.3 L139.48,149.9 L209.99,101.8 C226.25,90.4 223.63,72.2 214.53,63.1 C210.71,58.9 203.71,55.6 196.29,55.6 C187.52,55.6 178.14,60.2 172.71,73.3" id="Shape" fill="#0089D0"></path>
            <path d="M202.1,112.7 L135.88,158.5 L217.42,158.5 C234.14,158.5 244.89,141.4 240.12,125.7 C236.92,115.9 227.44,108.2 216.45,108.2 C211.83,108.2 206.92,109.5 202.1,112.7" id="Shape" fill="#0DB14B"></path>
            <path d="M30.92,158.5 L111.26,158.5 L45.02,112.7 C29.72,103 12.51,108.7 6.3,124.8 C1.03,143.3 14.18,158.5 30.92,158.5" id="Shape" fill="#FCB711"></path>
            <path d="M1004.7,133.7 L982.93,111.7 C976.85,117.3 970.74,121.7 964.59,125 C958.44,128.3 950.92,129.9 942.03,129.9 C935.36,129.9 929.25,128.6 923.69,126 C918.13,123.4 913.39,119.9 909.47,115.4 C905.54,111 902.46,105.8 900.24,99.9 C898.02,94 896.91,87.7 896.91,81 L896.91,80.6 C896.91,73.9 898.02,67.6 900.24,61.8 C902.46,55.9 905.58,50.8 909.58,46.3 C913.58,41.9 918.36,38.4 923.91,35.9 C929.47,33.4 935.51,32.1 942.03,32.1 C949.88,32.1 956.96,33.7 963.25,36.8 C969.55,39.9 975.74,44.2 981.81,49.7 L1003.6,24.5 C1000,21 996.19,17.7 992.04,14.8 C987.89,11.8 983.37,9.3 978.48,7.2 C973.59,5.1 968.14,3.5 962.14,2.3 C956.14,1.1 949.51,0.5 942.25,0.5 C930.25,0.5 919.28,2.6 909.36,6.9 C899.43,11.1 890.91,16.9 883.8,24.2 C876.68,31.5 871.13,40.1 867.13,49.8 C863.13,59.5 861.13,69.9 861.13,81 L861.13,81.4 C861.13,92.6 863.13,103 867.13,112.8 C871.13,122.6 876.68,131 883.8,138.2 C890.91,145.4 899.35,151.1 909.13,155.2 C918.91,159.4 929.51,161.5 940.91,161.5 C948.47,161.5 955.29,160.8 961.37,159.6 C967.44,158.3 973.04,156.5 978.15,154 C983.26,151.6 987.96,148.6 992.26,145.2 C996.56,141.8 1000.7,138 1004.7,133.7 Z M856.15,116.1 L856.15,115.7 C856.15,105.3 853.56,97.2 848.37,91.3 C843.19,85.5 836.08,80.8 827.04,77.4 C829.85,76 832.48,74.2 834.93,72.1 C837.37,70 839.52,67.6 841.37,64.9 C843.23,62.1 844.71,59.1 845.82,55.7 C846.93,52.2 847.49,48.3 847.49,43.9 L847.49,43.4 C847.49,31.1 842.93,21.4 833.82,14.1 C824.7,6.8 812.15,3.2 796.14,3.2 L723.91,3.2 L723.91,158.8 L797.92,158.8 C806.67,158.8 814.63,157.9 821.82,156.1 C829,154.3 835.15,151.7 840.26,148.1 C845.37,144.6 849.3,140.1 852.04,134.8 C854.78,129.4 856.15,123.2 856.15,116.1 Z M813.48,49.7 C813.48,55.4 811.26,59.6 806.81,62.2 C802.37,64.8 796.37,66.1 788.81,66.1 L757.25,66.1 L757.25,33.2 L791.03,33.2 C798.29,33.2 803.85,34.6 807.7,37.3 C811.55,40.1 813.48,44 813.48,49.2 L813.48,49.7 Z M822.15,111.9 C822.15,117.7 820,121.9 815.7,124.7 C811.4,127.4 805.48,128.8 797.92,128.8 L757.25,128.8 L757.25,94.6 L796.81,94.6 C805.7,94.6 812.14,96.1 816.15,99.1 C820.15,102.1 822.15,106.3 822.15,111.4 L822.15,111.9 Z M703.05,158.8 L703.05,3.2 L669.26,3.2 L669.26,99 L596.37,3.2 L564.81,3.2 L564.81,158.8 L598.58,158.8 L598.58,59.9 L673.94,158.8 L703.05,158.8 Z M551.09,112.8 L551.09,112.3 C551.09,105.5 550.02,99.7 547.87,94.8 C545.72,89.9 542.53,85.6 538.31,82 C534.09,78.4 528.9,75.3 522.75,72.7 C516.6,70.1 509.6,67.7 501.75,65.7 C495.08,63.9 489.56,62.3 485.19,61 C480.82,59.7 477.38,58.2 474.86,56.8 C472.34,55.3 470.6,53.6 469.63,51.8 C468.67,49.9 468.19,47.7 468.19,45.2 L468.19,44.8 C468.19,40.9 469.86,37.7 473.19,35.1 C476.52,32.5 481.52,31.2 488.19,31.2 C494.86,31.2 501.52,32.6 508.19,35.3 C514.86,38.1 521.68,41.8 528.65,46.5 L546.42,20.8 C538.42,14.4 529.64,9.5 520.09,6.1 C510.53,2.7 500.04,1 488.63,1 C480.63,1 473.3,2.1 466.63,4.3 C459.97,6.5 454.22,9.7 449.41,13.9 C444.59,18 440.85,22.9 438.18,28.7 C435.51,34.4 434.18,40.8 434.18,47.9 L434.18,48.3 C434.18,56 435.4,62.5 437.85,67.7 C440.29,72.8 443.74,77.2 448.18,80.7 C452.63,84.1 458.04,87.1 464.41,89.4 C470.78,91.8 477.89,94 485.74,95.9 C492.26,97.5 497.56,99.1 501.64,100.6 C505.71,102 508.9,103.5 511.19,105 C513.49,106.5 515.05,108.1 515.86,109.8 C516.68,111.5 517.09,113.4 517.09,115.7 L517.09,116.1 C517.09,120.7 515.12,124.3 511.2,126.9 C507.27,129.5 501.75,130.8 494.64,130.8 C485.75,130.8 477.56,129.1 470.08,125.7 C462.59,122.3 455.3,117.7 448.19,111.9 L427.96,136.1 C437.29,144.6 447.67,150.8 459.07,154.9 C470.48,159 482.12,161 493.97,161 C502.42,161 510.12,159.9 517.09,157.8 C524.05,155.6 530.05,152.5 535.09,148.4 C540.13,144.4 544.05,139.3 546.87,133.3 C549.68,127.3 551.09,120.5 551.09,112.8 Z M417.25,158.8 L417.25,3.2 L380.36,3.2 L339.46,69 L298.57,3.2 L261.67,3.2 L261.67,158.8 L295.23,158.8 L295.23,57.9 L338.57,123.7 L339.46,123.7 L383.25,57.2 L383.25,158.8 L417.25,158.8 Z" id="Shape" fill="#000000"></path>
        </g>
    </g>
</svg>