<svg xmlns="http://www.w3.org/2000/svg" width="401" height="400" viewBox="0 0 401 400">
    <g fill="none" fill-rule="evenodd">
        <path fill="#FFF" d="M0 88.983l95.656 273.523 215.591-75.4L113.66 49.234z"/>
        <path fill="#E2E2E2" d="M106.061 79.804l-76.854 26.874-2.515-7.194 76.852-26.877zM203.001 45.898l-64.697 22.624-2.512-7.19 64.694-22.627zM210.15 63.842L35.577 124.895l-2.517-7.194 174.575-61.05zM216.351 81.574l-174.574 61.05-2.516-7.193 174.577-61.05zM222.552 99.304L47.98 160.357l-2.519-7.195 174.575-61.05zM228.754 117.034L54.18 178.088l-2.515-7.197 174.573-61.05zM234.953 134.765L60.382 195.817l-2.52-7.193 174.574-61.054zM241.153 152.494L66.58 213.546l-2.515-7.194 174.573-61.05zM247.356 170.225l-174.575 61.05-2.516-7.195 174.575-61.048zM253.554 187.956L78.98 249.004l-2.516-7.191 174.577-61.05zM259.756 205.683L85.181 266.734l-2.515-7.19L257.24 198.49zM265.957 223.417l-174.575 61.05-2.517-7.193L263.44 216.22zM272.158 241.142L97.584 302.198l-2.517-7.196 174.574-61.05zM278.355 258.875l-174.57 61.05-2.518-7.19 174.575-61.056zM284.556 276.606l-174.572 61.051-2.515-7.192 174.573-61.055z"/>
        <path fill="#E2E2E2" d="M222.552 99.304L47.98 160.357l-2.519-7.195 174.575-61.05z"/>
        <path fill="#FFF" d="M130.465 312.787l225.708 34.943 44.333-286.353-225.71-34.944z"/>
        <path fill="#E2E2E2" d="M232.14 61.97l-39.9-6.179 1.164-7.532 39.901 6.178z"/>
        <path fill="#E2E2E2" d="M374.187 83.96L203.98 57.61l1.169-7.53 170.206 26.35zM372.05 103.16L189.285 74.863l1.167-7.532 182.765 28.296zM369.177 121.72L186.413 93.425l1.166-7.532 182.765 28.298zM366.302 140.283L183.54 111.988l1.164-7.533 182.767 28.297zM363.43 158.846L180.665 130.55l1.167-7.53 182.763 28.294zM360.554 177.408l-182.762-28.296 1.163-7.531 182.767 28.295zM357.682 195.968l-182.764-28.295 1.166-7.532 182.765 28.296zM354.808 214.529l-182.764-28.293 1.167-7.533L355.974 207zM351.934 233.092L169.17 204.796l1.164-7.53 182.767 28.295zM349.061 251.653l-182.765-28.294 1.165-7.533 182.767 28.299zM346.188 270.22l-182.767-28.3 1.169-7.529 182.763 28.294zM343.314 288.78l-182.765-28.297 1.167-7.531 182.764 28.295zM340.439 307.341l-182.763-28.298 1.165-7.528 182.765 28.294zM337.566 325.902L154.8 297.605l1.166-7.53 182.765 28.296z"/>
        <path fill="#E2E2E2" d="M366.302 140.283L183.54 111.988l1.164-7.533 182.767 28.297z"/>
        <path fill="#E9F1FE" d="M328.582 310.836L105.5 359.83 43.347 76.81 266.43 27.82z"/>
        <path fill="#CFDBEF" d="M109.657 89.221l-39.438 8.66-1.633-7.444 39.435-8.66zM250.053 58.388l-66.945 14.7-1.633-7.442 66.941-14.702zM254.997 77.06L74.359 116.73l-1.634-7.442 180.636-39.67zM259.025 95.408L78.389 135.077l-1.635-7.444 180.64-39.668zM263.054 113.752L82.418 153.424l-1.635-7.445 180.637-39.668zM267.084 132.099l-180.637 39.67-1.635-7.444 180.638-39.666zM271.11 150.445L90.479 190.114l-1.638-7.443L269.477 143zM275.141 168.791L94.505 208.462l-1.634-7.445 180.637-39.669zM279.17 187.137L98.533 226.803l-1.633-7.44 180.635-39.669zM283.197 205.483l-180.635 39.669-1.636-7.445 180.64-39.667zM287.229 223.829l-180.637 39.667-1.635-7.44 180.637-39.67zM291.256 242.175l-180.636 39.67-1.635-7.444 180.636-39.67zM295.288 260.518l-180.64 39.67-1.633-7.44 180.637-39.672zM299.313 278.868l-180.634 39.666-1.637-7.44 180.64-39.67zM303.343 297.213L122.706 336.88l-1.634-7.44 180.637-39.672z"/>
        <path fill="#CFDBEF" d="M263.054 113.752L82.418 153.424l-1.635-7.445 180.637-39.668z"/>
        <path fill="#264D99" d="M353.06 54.555c-.003-7.75-6.34-14.09-14.082-14.09l-102.655.013c-7.748.001-20.43.003-28.167.002l-102.667.015c-7.746.001-14.082 6.345-14.082 14.097l.041 297.942c0 7.75 6.34 14.078 14.085 14.078l233.487-.032c7.743 0 14.078-6.332 14.08-14.082l-.04-297.943z"/>
        <path fill="#FFF" d="M324.149 55.004l-203.84.036c-6.75 0-12.292 5.529-12.293 12.293l.037 271.957c0 6.76 5.546 12.289 12.297 12.292l203.829-.03c6.75-.001 12.289-5.53 12.286-12.294l-.031-222.968.01-49.001c0-6.757-5.534-12.285-12.295-12.285"/>
        <path fill="#E9F1FE" d="M247.01 25.692C246.952 12.035 235.891.998 222.223 1c-13.663.002-24.73 11.04-24.785 24.698l-54.285.006.006 43.923 158.15-.02V25.685l-54.299.007z"/>
        <path fill="#CFDBEF" d="M301.31 69.699l-158.15.02-.004-14.693 158.155-.022z"/>
        <path fill="#FC0" d="M232.983 26.504c.003 5.943-4.814 10.76-10.75 10.762-5.944.002-10.76-4.815-10.762-10.758-.001-5.94 4.818-10.757 10.758-10.756 5.935-.002 10.754 4.814 10.754 10.752"/>
        <path fill="#E5E5E5" d="M133.038 110.334h86.992v-9.137h-86.992zM133.038 129.191h86.992v-9.137h-86.992zM133.038 148.05h86.992v-9.138h-86.992zM133.038 166.908h86.992v-9.137h-86.992zM132.522 188.65h178.419v-9.137H132.522zM132.522 210.392h178.419v-9.137H132.522zM132.522 232.135h178.419v-9.138H132.522zM132.522 254.077h178.419v-9.138H132.522zM132.522 276.018h178.419v-9.137H132.522zM132.522 297.959h178.419v-9.137H132.522zM132.522 319.902h178.419v-9.138H132.522z"/>
        <path fill="#E9F1FE" d="M236.867 290.5c-2.44 2.197-3.882.762-6.526 2.47l14.754 17.17 13.265-12.235-13.495-16.2a61.192 61.192 0 0 1-7.998 8.795"/>
        <path fill="#FFF" d="M237.258 292.53c-33.194 29.942-83.363 26.3-112.055-8.108-28.702-34.452-25.072-86.6 8.122-116.554 33.167-29.924 83.338-26.285 112.048 8.127 28.69 34.419 25.056 86.591-8.115 116.535"/>
        <path fill="#36C" d="M293.409 108.18c13.413 13.411 13.413 35.163 0 48.586-13.423 13.42-35.177 13.42-48.588.005-13.422-13.428-13.422-35.167 0-48.59 13.41-13.414 35.165-13.414 48.588 0"/>
        <path fill="#FFF" d="M288.949 146.922c-.168-.45-.381-.82-.783-1.096-1.048-.709-2.537-1.018-3.705-1.508-1.802-.753-3.578-1.573-5.242-2.603-1.103-.678-2.357-1.46-2.818-2.709a2.877 2.877 0 0 1-.181-.767v-.004l-.001-.004c-.006-.092-.021-.24-.034-.398l-.005-.057c-.014-.18-.03-.387-.035-.59v-.033c-.004-.146.003-.28.01-.415.006-.09.018-.172.03-.249.02-.126.043-.252.092-.317.273-.366.538-.77.799-1.193.854-1.267 1.652-2.793 2.309-4.653.792.035 1.708-1.286 2.089-3.075.375-1.758.097-3.305-.611-3.637.099-.874.178-1.78.223-2.746 0 0 2.072-13.48-11.976-13.48-14.045 0-11.971 13.48-11.971 13.48.044.965.124 1.872.223 2.746-.708.332-.99 1.877-.612 3.637.384 1.79 1.299 3.11 2.09 3.075.656 1.862 1.454 3.388 2.309 4.655.26.421.524.825.796 1.191.247.333.094 1.645.062 2.06l-.005.007h.002a2.842 2.842 0 0 1-.183.767l.002.002c-.463 1.246-1.715 2.03-2.815 2.707-1.667 1.03-3.443 1.85-5.248 2.603-1.166.49-2.653.8-3.702 1.508-.403.276-.615.646-.783 1.096-.068.18-.508 1.318-.398 1.451 2.445 2.896 5.584 5.247 9.19 6.866.052.023.109.041.16.065.042.017.085.032.129.052.529.228 1.066.436 1.61.63.157.056.318.106.479.16.435.143.872.281 1.318.403.105.03.207.068.308.083.814.216 1.64.408 2.489.55 1.479.246 2.996.383 4.55.383h.002c1.554 0 3.074-.137 4.553-.384a27.039 27.039 0 0 0 2.489-.549c.1-.015.202-.053.308-.083.445-.122.883-.26 1.317-.404.159-.053.322-.103.48-.16a26.118 26.118 0 0 0 1.609-.629c.04-.02.087-.035.128-.052.054-.024.106-.042.162-.065 3.606-1.619 6.742-3.97 9.187-6.866.113-.133-.33-1.272-.396-1.45"/>
        <path fill="#FFEAC9" d="M292.632 332.75a1.909 1.909 0 0 0-.24-.361l-4.33-5.11c-1.334-1.577-3.638-1.731-5.158-.34l-6.743 6.168c-1.51 1.388-1.659 3.796-.332 5.371l4.334 5.108c.233.293.503.495.787.68.483.43 5.22 4.39 9.953.366 0 0 6.597-5.127 1.73-11.882"/>
        <path fill="#E9F1FE" d="M189.06 164.359c-34.96-2.066-64.999 25.745-67.079 62.1-2.08 36.382 24.582 67.542 59.543 69.608 34.97 2.066 65.006-25.743 67.088-62.124 2.08-36.355-24.583-67.518-59.553-69.584"/>
        <path fill="#FFF" d="M231.235 233.463c-.025.458-.102.896-.14 1.344l-32.093-2.789c.013-.156.055-.3.065-.456.436-7.625-4.06-14.298-10.596-16.83l11.372-31.482c19.416 7.532 32.689 27.556 31.392 50.213"/>
        <path fill="#CFDBEF" d="M119.08 289.957c-15.298-18.344-22.795-41.811-21.108-66.077 1.688-24.265 12.358-46.416 30.047-62.377 21.522-19.414 50.87-26.772 78.51-19.685 17.553 4.501 33.11 14.409 44.988 28.654 15.297 18.348 22.79 41.815 21.1 66.078-1.69 24.265-12.36 46.413-30.046 62.365-21.525 19.416-50.875 26.775-78.515 19.687-17.555-4.502-33.106-14.408-44.976-28.645zm125.328-113.072c-28.245-33.874-77.593-37.458-110.24-8.006-32.644 29.456-36.219 80.804-7.977 114.663 28.23 33.865 77.577 37.45 110.23 7.995 32.644-29.44 36.218-80.79 7.987-114.652z"/>
        <path fill="#FFF" d="M231.235 233.463c-.025.458-.102.896-.14 1.344l-32.093-2.789c.013-.156.055-.3.065-.456.436-7.625-4.06-14.298-10.596-16.83l11.372-31.482c19.416 7.532 32.689 27.556 31.392 50.213"/>
        <path fill="#4A4A4A" d="M332.762 383.718l-15.65 14.266a6.303 6.303 0 0 1-9.114-.613l-68.845-81.74c-2.337-2.776-2.06-7.04.614-9.478l15.651-14.266c2.675-2.439 6.775-2.162 9.112.612l68.845 81.741c2.337 2.776 2.061 7.04-.613 9.478"/>
    </g>
</svg>
